<?xml version="1.0" encoding="UTF-8"?>
<svg xmlns="http://www.w3.org/2000/svg" xmlns:xlink="http://www.w3.org/1999/xlink" width="72pt" height="18pt" viewBox="0 0 72 18" version="1.1">
<g id="surface447">
<rect x="0" y="0" width="72" height="18" style="fill:rgb(100%,100%,100%);fill-opacity:1;stroke:none;"/>
<path style=" stroke:none;fill-rule:nonzero;fill:rgb(60%,60%,60%);fill-opacity:0.4;" d="M 3.273438 14.785156 L 3.398438 14.859375 L 3.527344 14.925781 L 3.652344 14.980469 L 3.777344 15.027344 L 3.90625 15.066406 L 4.03125 15.097656 L 4.15625 15.121094 L 4.285156 15.132812 L 4.410156 15.140625 L 4.535156 15.140625 L 4.664062 15.136719 L 4.914062 15.113281 L 5.042969 15.097656 L 5.167969 15.082031 L 5.296875 15.0625 L 5.546875 15.03125 L 5.675781 15.035156 L 5.800781 15.050781 L 5.925781 15.078125 L 6.054688 15.109375 L 6.304688 15.164062 L 6.433594 15.179688 L 6.683594 15.1875 L 6.8125 15.199219 L 6.9375 15.214844 L 7.0625 15.234375 L 7.191406 15.253906 L 7.316406 15.265625 L 7.445312 15.277344 L 7.695312 15.292969 L 7.824219 15.304688 L 7.949219 15.316406 L 8.074219 15.324219 L 8.203125 15.316406 L 8.328125 15.289062 L 8.453125 15.242188 L 8.582031 15.1875 L 8.707031 15.132812 L 8.832031 15.097656 L 8.960938 15.078125 L 9.085938 15.0625 L 9.214844 15.039062 L 9.339844 14.996094 L 9.464844 14.929688 L 9.59375 14.847656 L 9.71875 14.769531 L 9.84375 14.703125 L 9.972656 14.65625 L 10.222656 14.578125 L 10.351562 14.546875 L 10.601562 14.484375 L 10.730469 14.457031 L 10.855469 14.433594 L 10.980469 14.414062 L 11.109375 14.398438 L 11.234375 14.382812 L 11.363281 14.367188 L 11.488281 14.355469 L 11.613281 14.347656 L 11.742188 14.339844 L 11.867188 14.332031 L 11.992188 14.320312 L 12.121094 14.3125 L 12.246094 14.304688 L 12.371094 14.292969 L 12.5 14.277344 L 12.625 14.261719 L 12.75 14.242188 L 12.878906 14.222656 L 13.003906 14.195312 L 13.132812 14.167969 L 13.257812 14.136719 L 13.257812 15.972656 L 13.132812 15.867188 L 13.003906 15.773438 L 12.878906 15.6875 L 12.75 15.613281 L 12.625 15.550781 L 12.5 15.496094 L 12.371094 15.449219 L 12.246094 15.414062 L 12.121094 15.386719 L 11.992188 15.367188 L 11.867188 15.355469 L 11.742188 15.347656 L 11.613281 15.347656 L 11.488281 15.351562 L 11.363281 15.363281 L 11.234375 15.375 L 11.109375 15.390625 L 10.980469 15.410156 L 10.855469 15.429688 L 10.730469 15.457031 L 10.601562 15.480469 L 10.351562 15.542969 L 10.222656 15.574219 L 10.097656 15.609375 L 9.972656 15.648438 L 9.84375 15.683594 L 9.71875 15.691406 L 9.59375 15.6875 L 9.464844 15.679688 L 9.339844 15.679688 L 9.214844 15.699219 L 9.085938 15.738281 L 8.960938 15.785156 L 8.832031 15.824219 L 8.707031 15.847656 L 8.582031 15.859375 L 8.453125 15.867188 L 8.328125 15.882812 L 8.203125 15.910156 L 8.074219 15.949219 L 7.949219 15.988281 L 7.824219 16.019531 L 7.695312 16.023438 L 7.570312 16.007812 L 7.445312 15.980469 L 7.316406 15.953125 L 7.191406 15.921875 L 7.0625 15.898438 L 6.9375 15.878906 L 6.8125 15.875 L 6.683594 15.875 L 6.558594 15.886719 L 6.433594 15.902344 L 6.304688 15.917969 L 6.179688 15.9375 L 6.054688 15.960938 L 5.925781 15.992188 L 5.800781 16.023438 L 5.675781 16.058594 L 5.546875 16.089844 L 5.296875 16.152344 L 5.167969 16.183594 L 5.042969 16.214844 L 4.914062 16.246094 L 4.789062 16.28125 L 4.664062 16.320312 L 4.535156 16.359375 L 4.410156 16.410156 L 4.285156 16.464844 L 4.15625 16.523438 L 4.03125 16.59375 L 3.90625 16.671875 L 3.777344 16.757812 L 3.652344 16.851562 L 3.527344 16.953125 L 3.398438 17.0625 L 3.273438 17.183594 Z M 3.273438 14.785156 "/>
<path style="fill:none;stroke-width:2.133957;stroke-linecap:butt;stroke-linejoin:round;stroke:rgb(97.254902%,46.27451%,42.745098%);stroke-opacity:1;stroke-miterlimit:10;" d="M 3.273438 15.984375 L 3.398438 15.960938 L 3.527344 15.9375 L 3.777344 15.890625 L 3.90625 15.867188 L 4.15625 15.820312 L 4.285156 15.796875 L 4.535156 15.75 L 4.664062 15.726562 L 4.914062 15.679688 L 5.042969 15.65625 L 5.167969 15.632812 L 5.296875 15.609375 L 5.546875 15.5625 L 5.675781 15.546875 L 5.800781 15.539062 L 5.925781 15.535156 L 6.179688 15.535156 L 6.304688 15.539062 L 6.433594 15.539062 L 6.683594 15.53125 L 6.8125 15.535156 L 6.9375 15.546875 L 7.0625 15.566406 L 7.191406 15.585938 L 7.316406 15.609375 L 7.445312 15.628906 L 7.570312 15.648438 L 7.695312 15.660156 L 7.824219 15.660156 L 7.949219 15.652344 L 8.074219 15.636719 L 8.203125 15.613281 L 8.328125 15.585938 L 8.453125 15.554688 L 8.582031 15.523438 L 8.832031 15.460938 L 8.960938 15.433594 L 9.085938 15.402344 L 9.214844 15.371094 L 9.339844 15.335938 L 9.464844 15.304688 L 9.59375 15.265625 L 9.71875 15.230469 L 9.84375 15.191406 L 9.972656 15.152344 L 10.097656 15.113281 L 10.222656 15.078125 L 10.351562 15.042969 L 10.476562 15.011719 L 10.601562 14.984375 L 10.730469 14.957031 L 10.980469 14.910156 L 11.109375 14.894531 L 11.234375 14.878906 L 11.363281 14.863281 L 11.613281 14.847656 L 11.742188 14.84375 L 11.992188 14.84375 L 12.121094 14.851562 L 12.246094 14.859375 L 12.371094 14.871094 L 12.5 14.886719 L 12.625 14.90625 L 12.75 14.929688 L 12.878906 14.953125 L 13.003906 14.984375 L 13.132812 15.019531 L 13.257812 15.054688 "/>
<path style=" stroke:none;fill-rule:nonzero;fill:rgb(60%,60%,60%);fill-opacity:0.4;" d="M 25.460938 8.992188 L 25.753906 9.09375 L 26.050781 9.191406 L 26.34375 9.277344 L 26.640625 9.359375 L 26.933594 9.433594 L 27.230469 9.5 L 27.523438 9.554688 L 27.820312 9.605469 L 28.113281 9.648438 L 28.410156 9.679688 L 28.703125 9.707031 L 29 9.726562 L 29.292969 9.738281 L 29.589844 9.742188 L 29.882812 9.742188 L 30.179688 9.734375 L 30.472656 9.71875 L 30.769531 9.703125 L 31.0625 9.679688 L 31.359375 9.652344 L 31.652344 9.625 L 31.949219 9.589844 L 32.242188 9.554688 L 32.539062 9.515625 L 32.832031 9.476562 L 33.128906 9.433594 L 33.421875 9.386719 L 33.71875 9.339844 L 34.011719 9.285156 L 34.308594 9.234375 L 34.601562 9.179688 L 34.898438 9.125 L 35.191406 9.070312 L 35.488281 9.015625 L 35.78125 8.976562 L 36.078125 8.941406 L 36.371094 8.902344 L 36.667969 8.847656 L 36.960938 8.792969 L 37.257812 8.734375 L 37.550781 8.667969 L 37.847656 8.601562 L 38.140625 8.539062 L 38.4375 8.46875 L 38.730469 8.390625 L 39.027344 8.304688 L 39.320312 8.214844 L 39.617188 8.128906 L 39.910156 8.054688 L 40.207031 7.976562 L 40.5 7.890625 L 40.796875 7.804688 L 41.089844 7.738281 L 41.386719 7.695312 L 41.679688 7.652344 L 41.976562 7.601562 L 42.269531 7.554688 L 42.566406 7.523438 L 42.859375 7.488281 L 43.15625 7.4375 L 43.449219 7.382812 L 43.746094 7.328125 L 44.039062 7.269531 L 44.335938 7.210938 L 44.628906 7.148438 L 44.925781 7.082031 L 45.21875 7.011719 L 45.515625 6.9375 L 45.808594 6.855469 L 46.105469 6.765625 L 46.398438 6.664062 L 46.695312 6.554688 L 46.988281 6.433594 L 47.285156 6.296875 L 47.578125 6.152344 L 47.875 5.996094 L 48.167969 5.832031 L 48.464844 5.652344 L 48.757812 5.464844 L 48.757812 7.777344 L 48.464844 7.734375 L 48.167969 7.699219 L 47.875 7.675781 L 47.578125 7.660156 L 47.285156 7.652344 L 46.988281 7.652344 L 46.695312 7.664062 L 46.398438 7.683594 L 46.105469 7.710938 L 45.808594 7.746094 L 45.515625 7.789062 L 45.21875 7.835938 L 44.925781 7.886719 L 44.628906 7.9375 L 44.335938 7.988281 L 44.039062 8.042969 L 43.746094 8.097656 L 43.449219 8.152344 L 43.15625 8.207031 L 42.859375 8.257812 L 42.566406 8.308594 L 42.269531 8.363281 L 41.976562 8.421875 L 41.679688 8.46875 L 41.386719 8.519531 L 41.089844 8.582031 L 40.796875 8.65625 L 40.5 8.746094 L 40.207031 8.851562 L 39.910156 8.949219 L 39.617188 9.019531 L 39.320312 9.085938 L 39.027344 9.152344 L 38.730469 9.226562 L 38.4375 9.304688 L 38.140625 9.382812 L 37.847656 9.453125 L 37.550781 9.511719 L 37.257812 9.5625 L 36.960938 9.609375 L 36.667969 9.667969 L 36.371094 9.726562 L 36.078125 9.777344 L 35.78125 9.832031 L 35.488281 9.890625 L 35.191406 9.949219 L 34.898438 10.007812 L 34.601562 10.070312 L 34.308594 10.132812 L 34.011719 10.191406 L 33.71875 10.253906 L 33.421875 10.316406 L 33.128906 10.375 L 32.832031 10.433594 L 32.539062 10.488281 L 32.242188 10.539062 L 31.949219 10.582031 L 31.652344 10.625 L 31.359375 10.664062 L 31.0625 10.703125 L 30.769531 10.742188 L 30.472656 10.777344 L 30.179688 10.816406 L 29.882812 10.851562 L 29.589844 10.890625 L 29.292969 10.929688 L 29 10.972656 L 28.703125 11.015625 L 28.410156 11.0625 L 28.113281 11.109375 L 27.820312 11.160156 L 27.523438 11.214844 L 27.230469 11.269531 L 26.933594 11.332031 L 26.640625 11.390625 L 26.34375 11.457031 L 26.050781 11.523438 L 25.753906 11.59375 L 25.460938 11.664062 Z M 25.460938 8.992188 "/>
<path style="fill:none;stroke-width:2.133957;stroke-linecap:butt;stroke-linejoin:round;stroke:rgb(0%,72.941176%,21.960784%);stroke-opacity:1;stroke-miterlimit:10;" d="M 25.460938 10.328125 L 25.753906 10.34375 L 26.050781 10.355469 L 26.34375 10.367188 L 26.640625 10.375 L 26.933594 10.382812 L 27.230469 10.382812 L 27.523438 10.386719 L 27.820312 10.382812 L 28.113281 10.378906 L 28.410156 10.371094 L 28.703125 10.359375 L 29 10.347656 L 29.292969 10.335938 L 29.589844 10.316406 L 29.882812 10.296875 L 30.179688 10.273438 L 30.472656 10.25 L 30.769531 10.222656 L 31.0625 10.191406 L 31.359375 10.160156 L 31.652344 10.125 L 31.949219 10.085938 L 32.242188 10.046875 L 32.539062 10.003906 L 32.832031 9.957031 L 33.128906 9.90625 L 33.421875 9.851562 L 33.71875 9.796875 L 34.011719 9.738281 L 34.308594 9.683594 L 34.601562 9.625 L 34.898438 9.566406 L 35.191406 9.507812 L 35.488281 9.453125 L 35.78125 9.40625 L 36.078125 9.359375 L 36.371094 9.3125 L 36.667969 9.257812 L 36.960938 9.203125 L 37.257812 9.148438 L 37.550781 9.089844 L 37.847656 9.027344 L 38.140625 8.960938 L 38.4375 8.886719 L 38.730469 8.808594 L 39.027344 8.730469 L 39.320312 8.652344 L 39.617188 8.574219 L 39.910156 8.5 L 40.207031 8.414062 L 40.5 8.320312 L 40.796875 8.230469 L 41.089844 8.160156 L 41.386719 8.105469 L 41.679688 8.058594 L 41.976562 8.011719 L 42.269531 7.960938 L 42.566406 7.914062 L 42.859375 7.871094 L 43.15625 7.824219 L 43.449219 7.769531 L 43.746094 7.710938 L 44.039062 7.65625 L 44.335938 7.597656 L 44.628906 7.542969 L 44.925781 7.484375 L 45.21875 7.425781 L 45.515625 7.363281 L 45.808594 7.300781 L 46.105469 7.238281 L 46.398438 7.175781 L 46.695312 7.109375 L 46.988281 7.042969 L 47.285156 6.976562 L 47.578125 6.90625 L 47.875 6.835938 L 48.167969 6.765625 L 48.464844 6.695312 L 48.757812 6.621094 "/>
<path style=" stroke:none;fill-rule:nonzero;fill:rgb(60%,60%,60%);fill-opacity:0.4;" d="M 42.101562 3.542969 L 42.4375 3.699219 L 42.777344 3.835938 L 43.113281 3.960938 L 43.449219 4.070312 L 43.785156 4.164062 L 44.125 4.238281 L 44.460938 4.292969 L 44.796875 4.332031 L 45.136719 4.351562 L 45.472656 4.351562 L 45.808594 4.332031 L 46.144531 4.296875 L 46.484375 4.246094 L 46.820312 4.175781 L 47.15625 4.101562 L 47.496094 4.015625 L 47.832031 3.921875 L 48.167969 3.804688 L 48.503906 3.675781 L 48.84375 3.546875 L 49.179688 3.441406 L 49.515625 3.355469 L 49.851562 3.277344 L 50.191406 3.199219 L 50.527344 3.121094 L 50.863281 3.039062 L 51.203125 2.953125 L 51.539062 2.882812 L 51.875 2.828125 L 52.210938 2.804688 L 52.550781 2.847656 L 52.886719 2.890625 L 53.222656 2.90625 L 53.5625 2.957031 L 53.898438 3.023438 L 54.234375 3.054688 L 54.910156 3.054688 L 55.246094 3.035156 L 55.582031 3.011719 L 55.921875 2.96875 L 56.257812 2.910156 L 56.59375 2.832031 L 56.929688 2.75 L 57.269531 2.679688 L 57.605469 2.636719 L 57.941406 2.621094 L 58.277344 2.613281 L 58.617188 2.605469 L 59.289062 2.597656 L 59.628906 2.59375 L 60.636719 2.582031 L 60.976562 2.578125 L 61.648438 2.5625 L 61.988281 2.554688 L 62.324219 2.546875 L 62.996094 2.523438 L 63.335938 2.503906 L 63.671875 2.484375 L 64.007812 2.453125 L 64.347656 2.417969 L 64.683594 2.371094 L 65.019531 2.3125 L 65.355469 2.242188 L 65.695312 2.160156 L 66.03125 2.066406 L 66.367188 1.957031 L 66.703125 1.835938 L 67.042969 1.699219 L 67.378906 1.546875 L 67.714844 1.386719 L 68.054688 1.210938 L 68.390625 1.019531 L 68.726562 0.816406 L 68.726562 5.601562 L 68.390625 5.46875 L 68.054688 5.34375 L 67.714844 5.230469 L 67.378906 5.125 L 67.042969 5.03125 L 66.703125 4.949219 L 66.367188 4.875 L 66.03125 4.8125 L 65.695312 4.761719 L 65.355469 4.71875 L 65.019531 4.6875 L 64.683594 4.664062 L 64.347656 4.648438 L 64.007812 4.640625 L 63.671875 4.640625 L 63.335938 4.644531 L 62.996094 4.648438 L 61.988281 4.671875 L 61.648438 4.671875 L 61.3125 4.667969 L 60.976562 4.65625 L 60.636719 4.640625 L 60.300781 4.621094 L 59.628906 4.574219 L 59.289062 4.554688 L 58.953125 4.535156 L 58.617188 4.519531 L 58.277344 4.507812 L 57.941406 4.496094 L 57.605469 4.492188 L 57.269531 4.492188 L 56.929688 4.503906 L 56.59375 4.535156 L 56.257812 4.578125 L 55.921875 4.636719 L 55.582031 4.691406 L 55.246094 4.726562 L 54.910156 4.753906 L 54.570312 4.78125 L 54.234375 4.800781 L 53.898438 4.785156 L 53.5625 4.765625 L 53.222656 4.777344 L 52.886719 4.777344 L 52.550781 4.761719 L 52.210938 4.773438 L 51.875 4.804688 L 51.203125 4.835938 L 50.863281 4.855469 L 50.527344 4.890625 L 50.191406 4.941406 L 49.851562 5.015625 L 49.515625 5.097656 L 49.179688 5.1875 L 48.84375 5.273438 L 48.503906 5.355469 L 48.167969 5.460938 L 47.496094 5.6875 L 47.15625 5.800781 L 46.820312 5.925781 L 46.484375 6.066406 L 46.144531 6.21875 L 45.808594 6.386719 L 45.472656 6.574219 L 45.136719 6.777344 L 44.796875 7.003906 L 44.460938 7.25 L 44.125 7.515625 L 43.785156 7.800781 L 43.449219 8.105469 L 43.113281 8.425781 L 42.777344 8.765625 L 42.4375 9.125 L 42.101562 9.503906 Z M 42.101562 3.542969 "/>
<path style="fill:none;stroke-width:2.133957;stroke-linecap:butt;stroke-linejoin:round;stroke:rgb(38.039216%,61.176471%,100%);stroke-opacity:1;stroke-miterlimit:10;" d="M 42.101562 6.523438 L 42.4375 6.414062 L 42.777344 6.300781 L 43.113281 6.195312 L 43.449219 6.085938 L 43.785156 5.980469 L 44.125 5.875 L 44.460938 5.773438 L 44.796875 5.667969 L 45.136719 5.566406 L 45.472656 5.460938 L 46.144531 5.257812 L 46.484375 5.15625 L 46.820312 5.050781 L 47.15625 4.949219 L 47.496094 4.851562 L 47.832031 4.746094 L 48.167969 4.632812 L 48.503906 4.515625 L 48.84375 4.410156 L 49.179688 4.316406 L 49.515625 4.226562 L 49.851562 4.144531 L 50.191406 4.070312 L 50.527344 4.003906 L 50.863281 3.945312 L 51.203125 3.894531 L 51.539062 3.851562 L 51.875 3.816406 L 52.210938 3.789062 L 52.550781 3.804688 L 52.886719 3.835938 L 53.222656 3.84375 L 53.5625 3.863281 L 53.898438 3.90625 L 54.234375 3.929688 L 54.570312 3.917969 L 54.910156 3.902344 L 55.246094 3.882812 L 55.582031 3.851562 L 55.921875 3.804688 L 56.257812 3.746094 L 56.59375 3.683594 L 56.929688 3.628906 L 57.269531 3.585938 L 57.605469 3.5625 L 57.941406 3.558594 L 58.277344 3.558594 L 58.617188 3.5625 L 59.289062 3.578125 L 59.628906 3.585938 L 60.636719 3.609375 L 60.976562 3.617188 L 61.3125 3.621094 L 61.648438 3.617188 L 61.988281 3.613281 L 62.660156 3.597656 L 62.996094 3.585938 L 63.335938 3.574219 L 63.671875 3.5625 L 64.007812 3.546875 L 64.347656 3.535156 L 64.683594 3.515625 L 65.019531 3.5 L 65.355469 3.480469 L 65.695312 3.460938 L 66.03125 3.4375 L 66.367188 3.417969 L 66.703125 3.390625 L 67.042969 3.367188 L 67.378906 3.335938 L 67.714844 3.308594 L 68.054688 3.277344 L 68.390625 3.246094 L 68.726562 3.210938 "/>
</g>
</svg>
