<?xml version="1.0" encoding="UTF-8"?>
<svg xmlns="http://www.w3.org/2000/svg" xmlns:xlink="http://www.w3.org/1999/xlink" width="72pt" height="18pt" viewBox="0 0 72 18" version="1.1">
<g id="surface53">
<rect x="0" y="0" width="72" height="18" style="fill:rgb(100%,100%,100%);fill-opacity:1;stroke:none;"/>
<path style="fill:none;stroke-width:1.066978;stroke-linecap:butt;stroke-linejoin:round;stroke:rgb(97.254902%,46.27451%,42.745098%);stroke-opacity:1;stroke-miterlimit:10;" d="M 3.273438 16.4375 L 4.382812 17.183594 L 5.492188 16.4375 L 6.601562 16.011719 L 7.710938 16.378906 L 8.820312 16.152344 L 9.929688 15.800781 L 11.039062 15.324219 L 13.257812 15.695312 "/>
<path style="fill:none;stroke-width:1.066978;stroke-linecap:butt;stroke-linejoin:round;stroke:rgb(0%,72.941176%,21.960784%);stroke-opacity:1;stroke-miterlimit:10;" d="M 25.460938 9.742188 L 28.789062 10.488281 L 31.007812 10.488281 L 32.117188 8.257812 L 33.226562 10.488281 L 34.335938 9.742188 L 35.445312 8.753906 L 36.554688 8.851562 L 37.664062 9 L 38.773438 8.070312 L 39.882812 8.257812 L 40.992188 8.070312 L 42.101562 6.875 L 43.210938 7.511719 L 44.320312 7.363281 L 45.429688 6.023438 L 46.539062 6.769531 L 47.648438 5.28125 L 48.757812 6.023438 "/>
<path style="fill:none;stroke-width:1.066978;stroke-linecap:butt;stroke-linejoin:round;stroke:rgb(38.039216%,61.176471%,100%);stroke-opacity:1;stroke-miterlimit:10;" d="M 42.101562 5.28125 L 45.429688 4.539062 L 46.539062 4.042969 L 47.648438 4.539062 L 48.757812 3.261719 L 49.867188 1.933594 L 50.976562 2.304688 L 52.085938 1.5625 L 53.195312 3.792969 L 54.304688 2.675781 L 55.414062 0.816406 L 56.523438 4.042969 L 57.632812 1.5625 L 58.742188 1.933594 L 59.851562 1.3125 L 62.070312 4.539062 L 63.179688 3.050781 L 65.398438 2.304688 L 66.507812 2.304688 L 68.726562 0.816406 "/>
</g>
</svg>
