<?xml version="1.0" encoding="UTF-8"?>
<svg xmlns="http://www.w3.org/2000/svg" xmlns:xlink="http://www.w3.org/1999/xlink" width="72pt" height="18pt" viewBox="0 0 72 18" version="1.1">
<g id="surface20518">
<rect x="0" y="0" width="72" height="18" style="fill:rgb(100%,100%,100%);fill-opacity:1;stroke:none;"/>
<path style="fill-rule:nonzero;fill:rgb(97.254902%,46.27451%,42.745098%);fill-opacity:1;stroke-width:0.708661;stroke-linecap:round;stroke-linejoin:round;stroke:rgb(97.254902%,46.27451%,42.745098%);stroke-opacity:1;stroke-miterlimit:10;" d="M 15.453125 14.453125 C 15.453125 17.0625 11.546875 17.0625 11.546875 14.453125 C 11.546875 11.847656 15.453125 11.847656 15.453125 14.453125 "/>
<path style="fill-rule:nonzero;fill:rgb(97.254902%,46.27451%,42.745098%);fill-opacity:1;stroke-width:0.708661;stroke-linecap:round;stroke-linejoin:round;stroke:rgb(97.254902%,46.27451%,42.745098%);stroke-opacity:1;stroke-miterlimit:10;" d="M 15.453125 13.773438 C 15.453125 16.378906 11.546875 16.378906 11.546875 13.773438 C 11.546875 11.167969 15.453125 11.167969 15.453125 13.773438 "/>
<path style="fill:none;stroke-width:1.066978;stroke-linecap:butt;stroke-linejoin:round;stroke:rgb(97.254902%,46.27451%,42.745098%);stroke-opacity:1;stroke-miterlimit:10;" d="M 13.5 15.816406 L 13.5 15.136719 "/>
<path style="fill:none;stroke-width:1.066978;stroke-linecap:butt;stroke-linejoin:round;stroke:rgb(97.254902%,46.27451%,42.745098%);stroke-opacity:1;stroke-miterlimit:10;" d="M 13.5 16.5 L 13.5 17.183594 "/>
<path style="fill-rule:nonzero;fill:rgb(97.254902%,46.27451%,42.745098%);fill-opacity:1;stroke-width:1.066978;stroke-linecap:round;stroke-linejoin:round;stroke:rgb(97.254902%,46.27451%,42.745098%);stroke-opacity:1;stroke-miterlimit:10;" d="M 5.0625 15.816406 L 5.0625 16.5 L 21.9375 16.5 L 21.9375 15.816406 Z M 5.0625 15.816406 "/>
<path style="fill:none;stroke-width:2.133957;stroke-linecap:butt;stroke-linejoin:round;stroke:rgb(97.254902%,46.27451%,42.745098%);stroke-opacity:1;stroke-miterlimit:10;" d="M 5.0625 16.5 L 21.9375 16.5 "/>
<path style="fill:none;stroke-width:1.066978;stroke-linecap:butt;stroke-linejoin:round;stroke:rgb(0%,72.941176%,21.960784%);stroke-opacity:1;stroke-miterlimit:10;" d="M 36 7.636719 L 36 5.589844 "/>
<path style="fill:none;stroke-width:1.066978;stroke-linecap:butt;stroke-linejoin:round;stroke:rgb(0%,72.941176%,21.960784%);stroke-opacity:1;stroke-miterlimit:10;" d="M 36 9.683594 L 36 11.046875 "/>
<path style="fill-rule:nonzero;fill:rgb(0%,72.941176%,21.960784%);fill-opacity:1;stroke-width:1.066978;stroke-linecap:round;stroke-linejoin:round;stroke:rgb(0%,72.941176%,21.960784%);stroke-opacity:1;stroke-miterlimit:10;" d="M 27.5625 7.636719 L 27.5625 9.683594 L 44.4375 9.683594 L 44.4375 7.636719 Z M 27.5625 7.636719 "/>
<path style="fill:none;stroke-width:2.133957;stroke-linecap:butt;stroke-linejoin:round;stroke:rgb(0%,72.941176%,21.960784%);stroke-opacity:1;stroke-miterlimit:10;" d="M 27.5625 9 L 44.4375 9 "/>
<path style="fill:none;stroke-width:1.066978;stroke-linecap:butt;stroke-linejoin:round;stroke:rgb(38.039216%,61.176471%,100%);stroke-opacity:1;stroke-miterlimit:10;" d="M 58.5 2.183594 L 58.5 0.816406 "/>
<path style="fill:none;stroke-width:1.066978;stroke-linecap:butt;stroke-linejoin:round;stroke:rgb(38.039216%,61.176471%,100%);stroke-opacity:1;stroke-miterlimit:10;" d="M 58.5 5.589844 L 58.5 8.316406 "/>
<path style="fill-rule:nonzero;fill:rgb(38.039216%,61.176471%,100%);fill-opacity:1;stroke-width:1.066978;stroke-linecap:round;stroke-linejoin:round;stroke:rgb(38.039216%,61.176471%,100%);stroke-opacity:1;stroke-miterlimit:10;" d="M 50.0625 2.183594 L 50.0625 5.589844 L 66.9375 5.589844 L 66.9375 2.183594 Z M 50.0625 2.183594 "/>
<path style="fill:none;stroke-width:2.133957;stroke-linecap:butt;stroke-linejoin:round;stroke:rgb(38.039216%,61.176471%,100%);stroke-opacity:1;stroke-miterlimit:10;" d="M 50.0625 4.226562 L 66.9375 4.226562 "/>
</g>
</svg>
