<?xml version="1.0" encoding="UTF-8"?>
<svg xmlns="http://www.w3.org/2000/svg" xmlns:xlink="http://www.w3.org/1999/xlink" width="72pt" height="18pt" viewBox="0 0 72 18" version="1.1">
<g id="surface159">
<rect x="0" y="0" width="72" height="18" style="fill:rgb(100%,100%,100%);fill-opacity:1;stroke:none;"/>
<path style=" stroke:none;fill-rule:nonzero;fill:rgb(97.254902%,46.27451%,42.745098%);fill-opacity:1;" d="M 3.273438 17.183594 L 5.457031 17.183594 L 5.457031 15.925781 L 3.273438 15.925781 Z M 3.273438 17.183594 "/>
<path style=" stroke:none;fill-rule:nonzero;fill:rgb(97.254902%,46.27451%,42.745098%);fill-opacity:1;" d="M 5.453125 17.183594 L 7.636719 17.183594 L 7.636719 11.519531 L 5.453125 11.519531 Z M 5.453125 17.183594 "/>
<path style=" stroke:none;fill-rule:nonzero;fill:rgb(97.254902%,46.27451%,42.745098%);fill-opacity:1;" d="M 7.636719 17.183594 L 9.820312 17.183594 L 9.820312 0.820312 L 7.636719 0.820312 Z M 7.636719 17.183594 "/>
<path style=" stroke:none;fill-rule:nonzero;fill:rgb(97.254902%,46.27451%,42.745098%);fill-opacity:1;" d="M 9.816406 17.183594 L 12 17.183594 L 12 10.261719 L 9.816406 10.261719 Z M 9.816406 17.183594 "/>
<path style=" stroke:none;fill-rule:nonzero;fill:rgb(97.254902%,46.27451%,42.745098%);fill-opacity:1;" d="M 12 17.183594 L 14.183594 17.183594 L 14.183594 15.925781 L 12 15.925781 Z M 12 17.183594 "/>
<path style=" stroke:none;fill-rule:nonzero;fill:rgb(0%,72.941176%,21.960784%);fill-opacity:1;" d="M 25.089844 17.183594 L 27.273438 17.183594 L 27.273438 16.554688 L 25.089844 16.554688 Z M 25.089844 17.183594 "/>
<path style=" stroke:none;fill-rule:nonzero;fill:rgb(0%,72.941176%,21.960784%);fill-opacity:1;" d="M 27.273438 17.183594 L 29.457031 17.183594 L 29.457031 15.925781 L 27.273438 15.925781 Z M 27.273438 17.183594 "/>
<path style=" stroke:none;fill-rule:nonzero;fill:rgb(0%,72.941176%,21.960784%);fill-opacity:1;" d="M 29.453125 17.183594 L 31.636719 17.183594 L 31.636719 15.925781 L 29.453125 15.925781 Z M 29.453125 17.183594 "/>
<path style=" stroke:none;fill-rule:nonzero;fill:rgb(0%,72.941176%,21.960784%);fill-opacity:1;" d="M 31.636719 17.183594 L 33.820312 17.183594 L 33.820312 15.925781 L 31.636719 15.925781 Z M 31.636719 17.183594 "/>
<path style=" stroke:none;fill-rule:nonzero;fill:rgb(0%,72.941176%,21.960784%);fill-opacity:1;" d="M 33.816406 17.183594 L 36 17.183594 L 36 14.667969 L 33.816406 14.667969 Z M 33.816406 17.183594 "/>
<path style=" stroke:none;fill-rule:nonzero;fill:rgb(0%,72.941176%,21.960784%);fill-opacity:1;" d="M 36 17.183594 L 38.183594 17.183594 L 38.183594 12.148438 L 36 12.148438 Z M 36 17.183594 "/>
<path style=" stroke:none;fill-rule:nonzero;fill:rgb(0%,72.941176%,21.960784%);fill-opacity:1;" d="M 38.183594 17.183594 L 40.367188 17.183594 L 40.367188 13.40625 L 38.183594 13.40625 Z M 38.183594 17.183594 "/>
<path style=" stroke:none;fill-rule:nonzero;fill:rgb(38.039216%,61.176471%,100%);fill-opacity:1;" d="M 40.363281 17.183594 L 42.546875 17.183594 L 42.546875 16.554688 L 40.363281 16.554688 Z M 40.363281 17.183594 "/>
<path style=" stroke:none;fill-rule:nonzero;fill:rgb(0%,72.941176%,21.960784%);fill-opacity:1;" d="M 40.363281 16.550781 L 42.546875 16.550781 L 42.546875 9.628906 L 40.363281 9.628906 Z M 40.363281 16.550781 "/>
<path style=" stroke:none;fill-rule:nonzero;fill:rgb(0%,72.941176%,21.960784%);fill-opacity:1;" d="M 42.546875 17.183594 L 44.730469 17.183594 L 44.730469 12.148438 L 42.546875 12.148438 Z M 42.546875 17.183594 "/>
<path style=" stroke:none;fill-rule:nonzero;fill:rgb(38.039216%,61.176471%,100%);fill-opacity:1;" d="M 44.726562 17.183594 L 46.910156 17.183594 L 46.910156 14.035156 L 44.726562 14.035156 Z M 44.726562 17.183594 "/>
<path style=" stroke:none;fill-rule:nonzero;fill:rgb(0%,72.941176%,21.960784%);fill-opacity:1;" d="M 44.726562 14.035156 L 46.910156 14.035156 L 46.910156 11.519531 L 44.726562 11.519531 Z M 44.726562 14.035156 "/>
<path style=" stroke:none;fill-rule:nonzero;fill:rgb(38.039216%,61.176471%,100%);fill-opacity:1;" d="M 46.910156 17.183594 L 49.09375 17.183594 L 49.09375 10.890625 L 46.910156 10.890625 Z M 46.910156 17.183594 "/>
<path style=" stroke:none;fill-rule:nonzero;fill:rgb(0%,72.941176%,21.960784%);fill-opacity:1;" d="M 46.910156 10.886719 L 49.09375 10.886719 L 49.09375 9.628906 L 46.910156 9.628906 Z M 46.910156 10.886719 "/>
<path style=" stroke:none;fill-rule:nonzero;fill:rgb(38.039216%,61.176471%,100%);fill-opacity:1;" d="M 49.089844 17.183594 L 51.273438 17.183594 L 51.273438 14.667969 L 49.089844 14.667969 Z M 49.089844 17.183594 "/>
<path style=" stroke:none;fill-rule:nonzero;fill:rgb(38.039216%,61.176471%,100%);fill-opacity:1;" d="M 51.273438 17.183594 L 53.457031 17.183594 L 53.457031 14.035156 L 51.273438 14.035156 Z M 51.273438 17.183594 "/>
<path style=" stroke:none;fill-rule:nonzero;fill:rgb(38.039216%,61.176471%,100%);fill-opacity:1;" d="M 53.453125 17.183594 L 55.636719 17.183594 L 55.636719 11.519531 L 53.453125 11.519531 Z M 53.453125 17.183594 "/>
<path style=" stroke:none;fill-rule:nonzero;fill:rgb(38.039216%,61.176471%,100%);fill-opacity:1;" d="M 55.636719 17.183594 L 57.820312 17.183594 L 57.820312 12.777344 L 55.636719 12.777344 Z M 55.636719 17.183594 "/>
<path style=" stroke:none;fill-rule:nonzero;fill:rgb(38.039216%,61.176471%,100%);fill-opacity:1;" d="M 57.816406 17.183594 L 60 17.183594 L 60 15.296875 L 57.816406 15.296875 Z M 57.816406 17.183594 "/>
<path style=" stroke:none;fill-rule:nonzero;fill:rgb(38.039216%,61.176471%,100%);fill-opacity:1;" d="M 60 17.183594 L 62.183594 17.183594 L 62.183594 15.925781 L 60 15.925781 Z M 60 17.183594 "/>
<path style=" stroke:none;fill-rule:nonzero;fill:rgb(38.039216%,61.176471%,100%);fill-opacity:1;" d="M 62.183594 17.183594 L 64.367188 17.183594 L 64.367188 16.554688 L 62.183594 16.554688 Z M 62.183594 17.183594 "/>
<path style=" stroke:none;fill-rule:nonzero;fill:rgb(38.039216%,61.176471%,100%);fill-opacity:1;" d="M 64.363281 17.183594 L 66.546875 17.183594 L 66.546875 15.925781 L 64.363281 15.925781 Z M 64.363281 17.183594 "/>
<path style=" stroke:none;fill-rule:nonzero;fill:rgb(38.039216%,61.176471%,100%);fill-opacity:1;" d="M 66.546875 17.183594 L 68.730469 17.183594 L 68.730469 16.554688 L 66.546875 16.554688 Z M 66.546875 17.183594 "/>
</g>
</svg>
