<?xml version="1.0" encoding="UTF-8"?>
<svg xmlns="http://www.w3.org/2000/svg" xmlns:xlink="http://www.w3.org/1999/xlink" width="396pt" height="324pt" viewBox="0 0 396 324" version="1.1">
<g id="surface6557">
<rect x="0" y="0" width="396" height="324" style="fill:rgb(100%,100%,100%);fill-opacity:1;stroke:none;"/>
<path style="fill-rule:nonzero;fill:rgb(0%,0%,0%);fill-opacity:1;stroke-width:0.708661;stroke-linecap:round;stroke-linejoin:round;stroke:rgb(0%,0%,0%);stroke-opacity:1;stroke-miterlimit:10;" d="M 44.363281 297 C 44.363281 299.605469 40.453125 299.605469 40.453125 297 C 40.453125 294.394531 44.363281 294.394531 44.363281 297 "/>
<path style="fill-rule:nonzero;fill:rgb(0%,0%,0%);fill-opacity:1;stroke-width:0.708661;stroke-linecap:round;stroke-linejoin:round;stroke:rgb(0%,0%,0%);stroke-opacity:1;stroke-miterlimit:10;" d="M 44.363281 297 C 44.363281 299.605469 40.453125 299.605469 40.453125 297 C 40.453125 294.394531 44.363281 294.394531 44.363281 297 "/>
<path style="fill-rule:nonzero;fill:rgb(0%,0%,0%);fill-opacity:1;stroke-width:0.708661;stroke-linecap:round;stroke-linejoin:round;stroke:rgb(0%,0%,0%);stroke-opacity:1;stroke-miterlimit:10;" d="M 38.261719 297 C 38.261719 299.605469 34.351562 299.605469 34.351562 297 C 34.351562 294.394531 38.261719 294.394531 38.261719 297 "/>
<path style="fill-rule:nonzero;fill:rgb(0%,0%,0%);fill-opacity:1;stroke-width:0.708661;stroke-linecap:round;stroke-linejoin:round;stroke:rgb(0%,0%,0%);stroke-opacity:1;stroke-miterlimit:10;" d="M 50.464844 297 C 50.464844 299.605469 46.554688 299.605469 46.554688 297 C 46.554688 294.394531 50.464844 294.394531 50.464844 297 "/>
<path style="fill-rule:nonzero;fill:rgb(0%,0%,0%);fill-opacity:1;stroke-width:0.708661;stroke-linecap:round;stroke-linejoin:round;stroke:rgb(0%,0%,0%);stroke-opacity:1;stroke-miterlimit:10;" d="M 44.363281 297 C 44.363281 299.605469 40.453125 299.605469 40.453125 297 C 40.453125 294.394531 44.363281 294.394531 44.363281 297 "/>
<path style="fill-rule:nonzero;fill:rgb(0%,0%,0%);fill-opacity:1;stroke-width:0.708661;stroke-linecap:round;stroke-linejoin:round;stroke:rgb(0%,0%,0%);stroke-opacity:1;stroke-miterlimit:10;" d="M 62.667969 272.453125 C 62.667969 275.0625 58.757812 275.0625 58.757812 272.453125 C 58.757812 269.847656 62.667969 269.847656 62.667969 272.453125 "/>
<path style="fill-rule:nonzero;fill:rgb(0%,0%,0%);fill-opacity:1;stroke-width:0.708661;stroke-linecap:round;stroke-linejoin:round;stroke:rgb(0%,0%,0%);stroke-opacity:1;stroke-miterlimit:10;" d="M 44.363281 284.726562 C 44.363281 287.332031 40.453125 287.332031 40.453125 284.726562 C 40.453125 282.121094 44.363281 282.121094 44.363281 284.726562 "/>
<path style="fill-rule:nonzero;fill:rgb(0%,0%,0%);fill-opacity:1;stroke-width:0.708661;stroke-linecap:round;stroke-linejoin:round;stroke:rgb(0%,0%,0%);stroke-opacity:1;stroke-miterlimit:10;" d="M 50.464844 297 C 50.464844 299.605469 46.554688 299.605469 46.554688 297 C 46.554688 294.394531 50.464844 294.394531 50.464844 297 "/>
<path style="fill-rule:nonzero;fill:rgb(0%,0%,0%);fill-opacity:1;stroke-width:0.708661;stroke-linecap:round;stroke-linejoin:round;stroke:rgb(0%,0%,0%);stroke-opacity:1;stroke-miterlimit:10;" d="M 44.363281 297 C 44.363281 299.605469 40.453125 299.605469 40.453125 297 C 40.453125 294.394531 44.363281 294.394531 44.363281 297 "/>
<path style="fill-rule:nonzero;fill:rgb(0%,0%,0%);fill-opacity:1;stroke-width:0.708661;stroke-linecap:round;stroke-linejoin:round;stroke:rgb(0%,0%,0%);stroke-opacity:1;stroke-miterlimit:10;" d="M 50.464844 309.273438 C 50.464844 311.878906 46.554688 311.878906 46.554688 309.273438 C 46.554688 306.667969 50.464844 306.667969 50.464844 309.273438 "/>
<path style="fill-rule:nonzero;fill:rgb(0%,0%,0%);fill-opacity:1;stroke-width:0.708661;stroke-linecap:round;stroke-linejoin:round;stroke:rgb(0%,0%,0%);stroke-opacity:1;stroke-miterlimit:10;" d="M 50.464844 297 C 50.464844 299.605469 46.554688 299.605469 46.554688 297 C 46.554688 294.394531 50.464844 294.394531 50.464844 297 "/>
<path style="fill-rule:nonzero;fill:rgb(0%,0%,0%);fill-opacity:1;stroke-width:0.708661;stroke-linecap:round;stroke-linejoin:round;stroke:rgb(0%,0%,0%);stroke-opacity:1;stroke-miterlimit:10;" d="M 56.566406 297 C 56.566406 299.605469 52.65625 299.605469 52.65625 297 C 52.65625 294.394531 56.566406 294.394531 56.566406 297 "/>
<path style="fill-rule:nonzero;fill:rgb(0%,0%,0%);fill-opacity:1;stroke-width:0.708661;stroke-linecap:round;stroke-linejoin:round;stroke:rgb(0%,0%,0%);stroke-opacity:1;stroke-miterlimit:10;" d="M 44.363281 309.273438 C 44.363281 311.878906 40.453125 311.878906 40.453125 309.273438 C 40.453125 306.667969 44.363281 306.667969 44.363281 309.273438 "/>
<path style="fill-rule:nonzero;fill:rgb(0%,0%,0%);fill-opacity:1;stroke-width:0.708661;stroke-linecap:round;stroke-linejoin:round;stroke:rgb(0%,0%,0%);stroke-opacity:1;stroke-miterlimit:10;" d="M 26.054688 309.273438 C 26.054688 311.878906 22.148438 311.878906 22.148438 309.273438 C 22.148438 306.667969 26.054688 306.667969 26.054688 309.273438 "/>
<path style="fill-rule:nonzero;fill:rgb(0%,0%,0%);fill-opacity:1;stroke-width:0.708661;stroke-linecap:round;stroke-linejoin:round;stroke:rgb(0%,0%,0%);stroke-opacity:1;stroke-miterlimit:10;" d="M 32.15625 297 C 32.15625 299.605469 28.25 299.605469 28.25 297 C 28.25 294.394531 32.15625 294.394531 32.15625 297 "/>
<path style="fill-rule:nonzero;fill:rgb(0%,0%,0%);fill-opacity:1;stroke-width:0.708661;stroke-linecap:round;stroke-linejoin:round;stroke:rgb(0%,0%,0%);stroke-opacity:1;stroke-miterlimit:10;" d="M 50.464844 272.453125 C 50.464844 275.0625 46.554688 275.0625 46.554688 272.453125 C 46.554688 269.847656 50.464844 269.847656 50.464844 272.453125 "/>
<path style="fill-rule:nonzero;fill:rgb(0%,0%,0%);fill-opacity:1;stroke-width:0.708661;stroke-linecap:round;stroke-linejoin:round;stroke:rgb(0%,0%,0%);stroke-opacity:1;stroke-miterlimit:10;" d="M 38.261719 272.453125 C 38.261719 275.0625 34.351562 275.0625 34.351562 272.453125 C 34.351562 269.847656 38.261719 269.847656 38.261719 272.453125 "/>
<path style="fill-rule:nonzero;fill:rgb(0%,0%,0%);fill-opacity:1;stroke-width:0.708661;stroke-linecap:round;stroke-linejoin:round;stroke:rgb(0%,0%,0%);stroke-opacity:1;stroke-miterlimit:10;" d="M 44.363281 284.726562 C 44.363281 287.332031 40.453125 287.332031 40.453125 284.726562 C 40.453125 282.121094 44.363281 282.121094 44.363281 284.726562 "/>
<path style="fill-rule:nonzero;fill:rgb(0%,0%,0%);fill-opacity:1;stroke-width:0.708661;stroke-linecap:round;stroke-linejoin:round;stroke:rgb(0%,0%,0%);stroke-opacity:1;stroke-miterlimit:10;" d="M 62.667969 284.726562 C 62.667969 287.332031 58.757812 287.332031 58.757812 284.726562 C 58.757812 282.121094 62.667969 282.121094 62.667969 284.726562 "/>
<path style="fill-rule:nonzero;fill:rgb(0%,0%,0%);fill-opacity:1;stroke-width:0.708661;stroke-linecap:round;stroke-linejoin:round;stroke:rgb(0%,0%,0%);stroke-opacity:1;stroke-miterlimit:10;" d="M 50.464844 284.726562 C 50.464844 287.332031 46.554688 287.332031 46.554688 284.726562 C 46.554688 282.121094 50.464844 282.121094 50.464844 284.726562 "/>
<path style="fill-rule:nonzero;fill:rgb(0%,0%,0%);fill-opacity:1;stroke-width:0.708661;stroke-linecap:round;stroke-linejoin:round;stroke:rgb(0%,0%,0%);stroke-opacity:1;stroke-miterlimit:10;" d="M 62.667969 297 C 62.667969 299.605469 58.757812 299.605469 58.757812 297 C 58.757812 294.394531 62.667969 294.394531 62.667969 297 "/>
<path style="fill-rule:nonzero;fill:rgb(0%,0%,0%);fill-opacity:1;stroke-width:0.708661;stroke-linecap:round;stroke-linejoin:round;stroke:rgb(0%,0%,0%);stroke-opacity:1;stroke-miterlimit:10;" d="M 50.464844 272.453125 C 50.464844 275.0625 46.554688 275.0625 46.554688 272.453125 C 46.554688 269.847656 50.464844 269.847656 50.464844 272.453125 "/>
<path style="fill-rule:nonzero;fill:rgb(0%,0%,0%);fill-opacity:1;stroke-width:0.708661;stroke-linecap:round;stroke-linejoin:round;stroke:rgb(0%,0%,0%);stroke-opacity:1;stroke-miterlimit:10;" d="M 19.953125 297 C 19.953125 299.605469 16.046875 299.605469 16.046875 297 C 16.046875 294.394531 19.953125 294.394531 19.953125 297 "/>
<path style="fill-rule:nonzero;fill:rgb(0%,0%,0%);fill-opacity:1;stroke-width:0.708661;stroke-linecap:round;stroke-linejoin:round;stroke:rgb(0%,0%,0%);stroke-opacity:1;stroke-miterlimit:10;" d="M 62.667969 260.183594 C 62.667969 262.789062 58.757812 262.789062 58.757812 260.183594 C 58.757812 257.574219 62.667969 257.574219 62.667969 260.183594 "/>
<path style="fill-rule:nonzero;fill:rgb(0%,0%,0%);fill-opacity:1;stroke-width:0.708661;stroke-linecap:round;stroke-linejoin:round;stroke:rgb(0%,0%,0%);stroke-opacity:1;stroke-miterlimit:10;" d="M 74.871094 297 C 74.871094 299.605469 70.960938 299.605469 70.960938 297 C 70.960938 294.394531 74.871094 294.394531 74.871094 297 "/>
<path style="fill-rule:nonzero;fill:rgb(0%,0%,0%);fill-opacity:1;stroke-width:0.708661;stroke-linecap:round;stroke-linejoin:round;stroke:rgb(0%,0%,0%);stroke-opacity:1;stroke-miterlimit:10;" d="M 56.566406 297 C 56.566406 299.605469 52.65625 299.605469 52.65625 297 C 52.65625 294.394531 56.566406 294.394531 56.566406 297 "/>
<path style="fill-rule:nonzero;fill:rgb(0%,0%,0%);fill-opacity:1;stroke-width:0.708661;stroke-linecap:round;stroke-linejoin:round;stroke:rgb(0%,0%,0%);stroke-opacity:1;stroke-miterlimit:10;" d="M 56.566406 272.453125 C 56.566406 275.0625 52.65625 275.0625 52.65625 272.453125 C 52.65625 269.847656 56.566406 269.847656 56.566406 272.453125 "/>
<path style="fill-rule:nonzero;fill:rgb(0%,0%,0%);fill-opacity:1;stroke-width:0.708661;stroke-linecap:round;stroke-linejoin:round;stroke:rgb(0%,0%,0%);stroke-opacity:1;stroke-miterlimit:10;" d="M 50.464844 297 C 50.464844 299.605469 46.554688 299.605469 46.554688 297 C 46.554688 294.394531 50.464844 294.394531 50.464844 297 "/>
<path style="fill-rule:nonzero;fill:rgb(0%,0%,0%);fill-opacity:1;stroke-width:0.708661;stroke-linecap:round;stroke-linejoin:round;stroke:rgb(0%,0%,0%);stroke-opacity:1;stroke-miterlimit:10;" d="M 44.363281 297 C 44.363281 299.605469 40.453125 299.605469 40.453125 297 C 40.453125 294.394531 44.363281 294.394531 44.363281 297 "/>
<path style="fill-rule:nonzero;fill:rgb(0%,0%,0%);fill-opacity:1;stroke-width:0.708661;stroke-linecap:round;stroke-linejoin:round;stroke:rgb(0%,0%,0%);stroke-opacity:1;stroke-miterlimit:10;" d="M 56.566406 297 C 56.566406 299.605469 52.65625 299.605469 52.65625 297 C 52.65625 294.394531 56.566406 294.394531 56.566406 297 "/>
<path style="fill-rule:nonzero;fill:rgb(0%,0%,0%);fill-opacity:1;stroke-width:0.708661;stroke-linecap:round;stroke-linejoin:round;stroke:rgb(0%,0%,0%);stroke-opacity:1;stroke-miterlimit:10;" d="M 56.566406 297 C 56.566406 299.605469 52.65625 299.605469 52.65625 297 C 52.65625 294.394531 56.566406 294.394531 56.566406 297 "/>
<path style="fill-rule:nonzero;fill:rgb(0%,0%,0%);fill-opacity:1;stroke-width:0.708661;stroke-linecap:round;stroke-linejoin:round;stroke:rgb(0%,0%,0%);stroke-opacity:1;stroke-miterlimit:10;" d="M 50.464844 272.453125 C 50.464844 275.0625 46.554688 275.0625 46.554688 272.453125 C 46.554688 269.847656 50.464844 269.847656 50.464844 272.453125 "/>
<path style="fill-rule:nonzero;fill:rgb(0%,0%,0%);fill-opacity:1;stroke-width:0.708661;stroke-linecap:round;stroke-linejoin:round;stroke:rgb(0%,0%,0%);stroke-opacity:1;stroke-miterlimit:10;" d="M 50.464844 309.273438 C 50.464844 311.878906 46.554688 311.878906 46.554688 309.273438 C 46.554688 306.667969 50.464844 306.667969 50.464844 309.273438 "/>
<path style="fill-rule:nonzero;fill:rgb(0%,0%,0%);fill-opacity:1;stroke-width:0.708661;stroke-linecap:round;stroke-linejoin:round;stroke:rgb(0%,0%,0%);stroke-opacity:1;stroke-miterlimit:10;" d="M 44.363281 297 C 44.363281 299.605469 40.453125 299.605469 40.453125 297 C 40.453125 294.394531 44.363281 294.394531 44.363281 297 "/>
<path style="fill-rule:nonzero;fill:rgb(0%,0%,0%);fill-opacity:1;stroke-width:0.708661;stroke-linecap:round;stroke-linejoin:round;stroke:rgb(0%,0%,0%);stroke-opacity:1;stroke-miterlimit:10;" d="M 50.464844 297 C 50.464844 299.605469 46.554688 299.605469 46.554688 297 C 46.554688 294.394531 50.464844 294.394531 50.464844 297 "/>
<path style="fill-rule:nonzero;fill:rgb(0%,0%,0%);fill-opacity:1;stroke-width:0.708661;stroke-linecap:round;stroke-linejoin:round;stroke:rgb(0%,0%,0%);stroke-opacity:1;stroke-miterlimit:10;" d="M 32.15625 297 C 32.15625 299.605469 28.25 299.605469 28.25 297 C 28.25 294.394531 32.15625 294.394531 32.15625 297 "/>
<path style="fill-rule:nonzero;fill:rgb(0%,0%,0%);fill-opacity:1;stroke-width:0.708661;stroke-linecap:round;stroke-linejoin:round;stroke:rgb(0%,0%,0%);stroke-opacity:1;stroke-miterlimit:10;" d="M 38.261719 297 C 38.261719 299.605469 34.351562 299.605469 34.351562 297 C 34.351562 294.394531 38.261719 294.394531 38.261719 297 "/>
<path style="fill-rule:nonzero;fill:rgb(0%,0%,0%);fill-opacity:1;stroke-width:0.708661;stroke-linecap:round;stroke-linejoin:round;stroke:rgb(0%,0%,0%);stroke-opacity:1;stroke-miterlimit:10;" d="M 44.363281 309.273438 C 44.363281 311.878906 40.453125 311.878906 40.453125 309.273438 C 40.453125 306.667969 44.363281 306.667969 44.363281 309.273438 "/>
<path style="fill-rule:nonzero;fill:rgb(0%,0%,0%);fill-opacity:1;stroke-width:0.708661;stroke-linecap:round;stroke-linejoin:round;stroke:rgb(0%,0%,0%);stroke-opacity:1;stroke-miterlimit:10;" d="M 38.261719 297 C 38.261719 299.605469 34.351562 299.605469 34.351562 297 C 34.351562 294.394531 38.261719 294.394531 38.261719 297 "/>
<path style="fill-rule:nonzero;fill:rgb(0%,0%,0%);fill-opacity:1;stroke-width:0.708661;stroke-linecap:round;stroke-linejoin:round;stroke:rgb(0%,0%,0%);stroke-opacity:1;stroke-miterlimit:10;" d="M 50.464844 297 C 50.464844 299.605469 46.554688 299.605469 46.554688 297 C 46.554688 294.394531 50.464844 294.394531 50.464844 297 "/>
<path style="fill-rule:nonzero;fill:rgb(0%,0%,0%);fill-opacity:1;stroke-width:0.708661;stroke-linecap:round;stroke-linejoin:round;stroke:rgb(0%,0%,0%);stroke-opacity:1;stroke-miterlimit:10;" d="M 38.261719 284.726562 C 38.261719 287.332031 34.351562 287.332031 34.351562 284.726562 C 34.351562 282.121094 38.261719 282.121094 38.261719 284.726562 "/>
<path style="fill-rule:nonzero;fill:rgb(0%,0%,0%);fill-opacity:1;stroke-width:0.708661;stroke-linecap:round;stroke-linejoin:round;stroke:rgb(0%,0%,0%);stroke-opacity:1;stroke-miterlimit:10;" d="M 38.261719 284.726562 C 38.261719 287.332031 34.351562 287.332031 34.351562 284.726562 C 34.351562 282.121094 38.261719 282.121094 38.261719 284.726562 "/>
<path style="fill-rule:nonzero;fill:rgb(0%,0%,0%);fill-opacity:1;stroke-width:0.708661;stroke-linecap:round;stroke-linejoin:round;stroke:rgb(0%,0%,0%);stroke-opacity:1;stroke-miterlimit:10;" d="M 38.261719 297 C 38.261719 299.605469 34.351562 299.605469 34.351562 297 C 34.351562 294.394531 38.261719 294.394531 38.261719 297 "/>
<path style="fill-rule:nonzero;fill:rgb(0%,0%,0%);fill-opacity:1;stroke-width:0.708661;stroke-linecap:round;stroke-linejoin:round;stroke:rgb(0%,0%,0%);stroke-opacity:1;stroke-miterlimit:10;" d="M 56.566406 247.910156 C 56.566406 250.515625 52.65625 250.515625 52.65625 247.910156 C 52.65625 245.300781 56.566406 245.300781 56.566406 247.910156 "/>
<path style="fill-rule:nonzero;fill:rgb(0%,0%,0%);fill-opacity:1;stroke-width:0.708661;stroke-linecap:round;stroke-linejoin:round;stroke:rgb(0%,0%,0%);stroke-opacity:1;stroke-miterlimit:10;" d="M 74.871094 272.453125 C 74.871094 275.0625 70.960938 275.0625 70.960938 272.453125 C 70.960938 269.847656 74.871094 269.847656 74.871094 272.453125 "/>
<path style="fill-rule:nonzero;fill:rgb(0%,0%,0%);fill-opacity:1;stroke-width:0.708661;stroke-linecap:round;stroke-linejoin:round;stroke:rgb(0%,0%,0%);stroke-opacity:1;stroke-miterlimit:10;" d="M 44.363281 284.726562 C 44.363281 287.332031 40.453125 287.332031 40.453125 284.726562 C 40.453125 282.121094 44.363281 282.121094 44.363281 284.726562 "/>
<path style="fill-rule:nonzero;fill:rgb(0%,0%,0%);fill-opacity:1;stroke-width:0.708661;stroke-linecap:round;stroke-linejoin:round;stroke:rgb(0%,0%,0%);stroke-opacity:1;stroke-miterlimit:10;" d="M 56.566406 297 C 56.566406 299.605469 52.65625 299.605469 52.65625 297 C 52.65625 294.394531 56.566406 294.394531 56.566406 297 "/>
<path style="fill-rule:nonzero;fill:rgb(0%,0%,0%);fill-opacity:1;stroke-width:0.708661;stroke-linecap:round;stroke-linejoin:round;stroke:rgb(0%,0%,0%);stroke-opacity:1;stroke-miterlimit:10;" d="M 44.363281 297 C 44.363281 299.605469 40.453125 299.605469 40.453125 297 C 40.453125 294.394531 44.363281 294.394531 44.363281 297 "/>
<path style="fill-rule:nonzero;fill:rgb(0%,0%,0%);fill-opacity:1;stroke-width:0.708661;stroke-linecap:round;stroke-linejoin:round;stroke:rgb(0%,0%,0%);stroke-opacity:1;stroke-miterlimit:10;" d="M 50.464844 297 C 50.464844 299.605469 46.554688 299.605469 46.554688 297 C 46.554688 294.394531 50.464844 294.394531 50.464844 297 "/>
<path style="fill-rule:nonzero;fill:rgb(0%,0%,0%);fill-opacity:1;stroke-width:0.708661;stroke-linecap:round;stroke-linejoin:round;stroke:rgb(0%,0%,0%);stroke-opacity:1;stroke-miterlimit:10;" d="M 44.363281 297 C 44.363281 299.605469 40.453125 299.605469 40.453125 297 C 40.453125 294.394531 44.363281 294.394531 44.363281 297 "/>
<path style="fill-rule:nonzero;fill:rgb(0%,0%,0%);fill-opacity:1;stroke-width:0.708661;stroke-linecap:round;stroke-linejoin:round;stroke:rgb(0%,0%,0%);stroke-opacity:1;stroke-miterlimit:10;" d="M 245.71875 149.726562 C 245.71875 152.332031 241.808594 152.332031 241.808594 149.726562 C 241.808594 147.121094 245.71875 147.121094 245.71875 149.726562 "/>
<path style="fill-rule:nonzero;fill:rgb(0%,0%,0%);fill-opacity:1;stroke-width:0.708661;stroke-linecap:round;stroke-linejoin:round;stroke:rgb(0%,0%,0%);stroke-opacity:1;stroke-miterlimit:10;" d="M 233.515625 137.453125 C 233.515625 140.0625 229.605469 140.0625 229.605469 137.453125 C 229.605469 134.847656 233.515625 134.847656 233.515625 137.453125 "/>
<path style="fill-rule:nonzero;fill:rgb(0%,0%,0%);fill-opacity:1;stroke-width:0.708661;stroke-linecap:round;stroke-linejoin:round;stroke:rgb(0%,0%,0%);stroke-opacity:1;stroke-miterlimit:10;" d="M 257.921875 137.453125 C 257.921875 140.0625 254.011719 140.0625 254.011719 137.453125 C 254.011719 134.847656 257.921875 134.847656 257.921875 137.453125 "/>
<path style="fill-rule:nonzero;fill:rgb(0%,0%,0%);fill-opacity:1;stroke-width:0.708661;stroke-linecap:round;stroke-linejoin:round;stroke:rgb(0%,0%,0%);stroke-opacity:1;stroke-miterlimit:10;" d="M 203.003906 162 C 203.003906 164.605469 199.097656 164.605469 199.097656 162 C 199.097656 159.394531 203.003906 159.394531 203.003906 162 "/>
<path style="fill-rule:nonzero;fill:rgb(0%,0%,0%);fill-opacity:1;stroke-width:0.708661;stroke-linecap:round;stroke-linejoin:round;stroke:rgb(0%,0%,0%);stroke-opacity:1;stroke-miterlimit:10;" d="M 239.617188 137.453125 C 239.617188 140.0625 235.707031 140.0625 235.707031 137.453125 C 235.707031 134.847656 239.617188 134.847656 239.617188 137.453125 "/>
<path style="fill-rule:nonzero;fill:rgb(0%,0%,0%);fill-opacity:1;stroke-width:0.708661;stroke-linecap:round;stroke-linejoin:round;stroke:rgb(0%,0%,0%);stroke-opacity:1;stroke-miterlimit:10;" d="M 233.515625 162 C 233.515625 164.605469 229.605469 164.605469 229.605469 162 C 229.605469 159.394531 233.515625 159.394531 233.515625 162 "/>
<path style="fill-rule:nonzero;fill:rgb(0%,0%,0%);fill-opacity:1;stroke-width:0.708661;stroke-linecap:round;stroke-linejoin:round;stroke:rgb(0%,0%,0%);stroke-opacity:1;stroke-miterlimit:10;" d="M 245.71875 125.183594 C 245.71875 127.789062 241.808594 127.789062 241.808594 125.183594 C 241.808594 122.574219 245.71875 122.574219 245.71875 125.183594 "/>
<path style="fill-rule:nonzero;fill:rgb(0%,0%,0%);fill-opacity:1;stroke-width:0.708661;stroke-linecap:round;stroke-linejoin:round;stroke:rgb(0%,0%,0%);stroke-opacity:1;stroke-miterlimit:10;" d="M 160.292969 198.816406 C 160.292969 201.425781 156.382812 201.425781 156.382812 198.816406 C 156.382812 196.210938 160.292969 196.210938 160.292969 198.816406 "/>
<path style="fill-rule:nonzero;fill:rgb(0%,0%,0%);fill-opacity:1;stroke-width:0.708661;stroke-linecap:round;stroke-linejoin:round;stroke:rgb(0%,0%,0%);stroke-opacity:1;stroke-miterlimit:10;" d="M 239.617188 162 C 239.617188 164.605469 235.707031 164.605469 235.707031 162 C 235.707031 159.394531 239.617188 159.394531 239.617188 162 "/>
<path style="fill-rule:nonzero;fill:rgb(0%,0%,0%);fill-opacity:1;stroke-width:0.708661;stroke-linecap:round;stroke-linejoin:round;stroke:rgb(0%,0%,0%);stroke-opacity:1;stroke-miterlimit:10;" d="M 196.902344 149.726562 C 196.902344 152.332031 192.996094 152.332031 192.996094 149.726562 C 192.996094 147.121094 196.902344 147.121094 196.902344 149.726562 "/>
<path style="fill-rule:nonzero;fill:rgb(0%,0%,0%);fill-opacity:1;stroke-width:0.708661;stroke-linecap:round;stroke-linejoin:round;stroke:rgb(0%,0%,0%);stroke-opacity:1;stroke-miterlimit:10;" d="M 172.496094 198.816406 C 172.496094 201.425781 168.585938 201.425781 168.585938 198.816406 C 168.585938 196.210938 172.496094 196.210938 172.496094 198.816406 "/>
<path style="fill-rule:nonzero;fill:rgb(0%,0%,0%);fill-opacity:1;stroke-width:0.708661;stroke-linecap:round;stroke-linejoin:round;stroke:rgb(0%,0%,0%);stroke-opacity:1;stroke-miterlimit:10;" d="M 215.210938 137.453125 C 215.210938 140.0625 211.300781 140.0625 211.300781 137.453125 C 211.300781 134.847656 215.210938 134.847656 215.210938 137.453125 "/>
<path style="fill-rule:nonzero;fill:rgb(0%,0%,0%);fill-opacity:1;stroke-width:0.708661;stroke-linecap:round;stroke-linejoin:round;stroke:rgb(0%,0%,0%);stroke-opacity:1;stroke-miterlimit:10;" d="M 203.003906 198.816406 C 203.003906 201.425781 199.097656 201.425781 199.097656 198.816406 C 199.097656 196.210938 203.003906 196.210938 203.003906 198.816406 "/>
<path style="fill-rule:nonzero;fill:rgb(0%,0%,0%);fill-opacity:1;stroke-width:0.708661;stroke-linecap:round;stroke-linejoin:round;stroke:rgb(0%,0%,0%);stroke-opacity:1;stroke-miterlimit:10;" d="M 245.71875 149.726562 C 245.71875 152.332031 241.808594 152.332031 241.808594 149.726562 C 241.808594 147.121094 245.71875 147.121094 245.71875 149.726562 "/>
<path style="fill-rule:nonzero;fill:rgb(0%,0%,0%);fill-opacity:1;stroke-width:0.708661;stroke-linecap:round;stroke-linejoin:round;stroke:rgb(0%,0%,0%);stroke-opacity:1;stroke-miterlimit:10;" d="M 178.597656 162 C 178.597656 164.605469 174.6875 164.605469 174.6875 162 C 174.6875 159.394531 178.597656 159.394531 178.597656 162 "/>
<path style="fill-rule:nonzero;fill:rgb(0%,0%,0%);fill-opacity:1;stroke-width:0.708661;stroke-linecap:round;stroke-linejoin:round;stroke:rgb(0%,0%,0%);stroke-opacity:1;stroke-miterlimit:10;" d="M 227.414062 149.726562 C 227.414062 152.332031 223.503906 152.332031 223.503906 149.726562 C 223.503906 147.121094 227.414062 147.121094 227.414062 149.726562 "/>
<path style="fill-rule:nonzero;fill:rgb(0%,0%,0%);fill-opacity:1;stroke-width:0.708661;stroke-linecap:round;stroke-linejoin:round;stroke:rgb(0%,0%,0%);stroke-opacity:1;stroke-miterlimit:10;" d="M 233.515625 137.453125 C 233.515625 140.0625 229.605469 140.0625 229.605469 137.453125 C 229.605469 134.847656 233.515625 134.847656 233.515625 137.453125 "/>
<path style="fill-rule:nonzero;fill:rgb(0%,0%,0%);fill-opacity:1;stroke-width:0.708661;stroke-linecap:round;stroke-linejoin:round;stroke:rgb(0%,0%,0%);stroke-opacity:1;stroke-miterlimit:10;" d="M 209.105469 198.816406 C 209.105469 201.425781 205.199219 201.425781 205.199219 198.816406 C 205.199219 196.210938 209.105469 196.210938 209.105469 198.816406 "/>
<path style="fill-rule:nonzero;fill:rgb(0%,0%,0%);fill-opacity:1;stroke-width:0.708661;stroke-linecap:round;stroke-linejoin:round;stroke:rgb(0%,0%,0%);stroke-opacity:1;stroke-miterlimit:10;" d="M 233.515625 137.453125 C 233.515625 140.0625 229.605469 140.0625 229.605469 137.453125 C 229.605469 134.847656 233.515625 134.847656 233.515625 137.453125 "/>
<path style="fill-rule:nonzero;fill:rgb(0%,0%,0%);fill-opacity:1;stroke-width:0.708661;stroke-linecap:round;stroke-linejoin:round;stroke:rgb(0%,0%,0%);stroke-opacity:1;stroke-miterlimit:10;" d="M 196.902344 186.546875 C 196.902344 189.152344 192.996094 189.152344 192.996094 186.546875 C 192.996094 183.9375 196.902344 183.9375 196.902344 186.546875 "/>
<path style="fill-rule:nonzero;fill:rgb(0%,0%,0%);fill-opacity:1;stroke-width:0.708661;stroke-linecap:round;stroke-linejoin:round;stroke:rgb(0%,0%,0%);stroke-opacity:1;stroke-miterlimit:10;" d="M 251.820312 100.636719 C 251.820312 103.242188 247.910156 103.242188 247.910156 100.636719 C 247.910156 98.03125 251.820312 98.03125 251.820312 100.636719 "/>
<path style="fill-rule:nonzero;fill:rgb(0%,0%,0%);fill-opacity:1;stroke-width:0.708661;stroke-linecap:round;stroke-linejoin:round;stroke:rgb(0%,0%,0%);stroke-opacity:1;stroke-miterlimit:10;" d="M 203.003906 162 C 203.003906 164.605469 199.097656 164.605469 199.097656 162 C 199.097656 159.394531 203.003906 159.394531 203.003906 162 "/>
<path style="fill-rule:nonzero;fill:rgb(0%,0%,0%);fill-opacity:1;stroke-width:0.708661;stroke-linecap:round;stroke-linejoin:round;stroke:rgb(0%,0%,0%);stroke-opacity:1;stroke-miterlimit:10;" d="M 257.921875 137.453125 C 257.921875 140.0625 254.011719 140.0625 254.011719 137.453125 C 254.011719 134.847656 257.921875 134.847656 257.921875 137.453125 "/>
<path style="fill-rule:nonzero;fill:rgb(0%,0%,0%);fill-opacity:1;stroke-width:0.708661;stroke-linecap:round;stroke-linejoin:round;stroke:rgb(0%,0%,0%);stroke-opacity:1;stroke-miterlimit:10;" d="M 245.71875 174.273438 C 245.71875 176.878906 241.808594 176.878906 241.808594 174.273438 C 241.808594 171.667969 245.71875 171.667969 245.71875 174.273438 "/>
<path style="fill-rule:nonzero;fill:rgb(0%,0%,0%);fill-opacity:1;stroke-width:0.708661;stroke-linecap:round;stroke-linejoin:round;stroke:rgb(0%,0%,0%);stroke-opacity:1;stroke-miterlimit:10;" d="M 221.3125 162 C 221.3125 164.605469 217.402344 164.605469 217.402344 162 C 217.402344 159.394531 221.3125 159.394531 221.3125 162 "/>
<path style="fill-rule:nonzero;fill:rgb(0%,0%,0%);fill-opacity:1;stroke-width:0.708661;stroke-linecap:round;stroke-linejoin:round;stroke:rgb(0%,0%,0%);stroke-opacity:1;stroke-miterlimit:10;" d="M 227.414062 149.726562 C 227.414062 152.332031 223.503906 152.332031 223.503906 149.726562 C 223.503906 147.121094 227.414062 147.121094 227.414062 149.726562 "/>
<path style="fill-rule:nonzero;fill:rgb(0%,0%,0%);fill-opacity:1;stroke-width:0.708661;stroke-linecap:round;stroke-linejoin:round;stroke:rgb(0%,0%,0%);stroke-opacity:1;stroke-miterlimit:10;" d="M 251.820312 149.726562 C 251.820312 152.332031 247.910156 152.332031 247.910156 149.726562 C 247.910156 147.121094 251.820312 147.121094 251.820312 149.726562 "/>
<path style="fill-rule:nonzero;fill:rgb(0%,0%,0%);fill-opacity:1;stroke-width:0.708661;stroke-linecap:round;stroke-linejoin:round;stroke:rgb(0%,0%,0%);stroke-opacity:1;stroke-miterlimit:10;" d="M 264.023438 112.910156 C 264.023438 115.515625 260.113281 115.515625 260.113281 112.910156 C 260.113281 110.300781 264.023438 110.300781 264.023438 112.910156 "/>
<path style="fill-rule:nonzero;fill:rgb(0%,0%,0%);fill-opacity:1;stroke-width:0.708661;stroke-linecap:round;stroke-linejoin:round;stroke:rgb(0%,0%,0%);stroke-opacity:1;stroke-miterlimit:10;" d="M 233.515625 137.453125 C 233.515625 140.0625 229.605469 140.0625 229.605469 137.453125 C 229.605469 134.847656 233.515625 134.847656 233.515625 137.453125 "/>
<path style="fill-rule:nonzero;fill:rgb(0%,0%,0%);fill-opacity:1;stroke-width:0.708661;stroke-linecap:round;stroke-linejoin:round;stroke:rgb(0%,0%,0%);stroke-opacity:1;stroke-miterlimit:10;" d="M 172.496094 198.816406 C 172.496094 201.425781 168.585938 201.425781 168.585938 198.816406 C 168.585938 196.210938 172.496094 196.210938 172.496094 198.816406 "/>
<path style="fill-rule:nonzero;fill:rgb(0%,0%,0%);fill-opacity:1;stroke-width:0.708661;stroke-linecap:round;stroke-linejoin:round;stroke:rgb(0%,0%,0%);stroke-opacity:1;stroke-miterlimit:10;" d="M 190.800781 186.546875 C 190.800781 189.152344 186.894531 189.152344 186.894531 186.546875 C 186.894531 183.9375 190.800781 183.9375 190.800781 186.546875 "/>
<path style="fill-rule:nonzero;fill:rgb(0%,0%,0%);fill-opacity:1;stroke-width:0.708661;stroke-linecap:round;stroke-linejoin:round;stroke:rgb(0%,0%,0%);stroke-opacity:1;stroke-miterlimit:10;" d="M 184.699219 198.816406 C 184.699219 201.425781 180.789062 201.425781 180.789062 198.816406 C 180.789062 196.210938 184.699219 196.210938 184.699219 198.816406 "/>
<path style="fill-rule:nonzero;fill:rgb(0%,0%,0%);fill-opacity:1;stroke-width:0.708661;stroke-linecap:round;stroke-linejoin:round;stroke:rgb(0%,0%,0%);stroke-opacity:1;stroke-miterlimit:10;" d="M 196.902344 174.273438 C 196.902344 176.878906 192.996094 176.878906 192.996094 174.273438 C 192.996094 171.667969 196.902344 171.667969 196.902344 174.273438 "/>
<path style="fill-rule:nonzero;fill:rgb(0%,0%,0%);fill-opacity:1;stroke-width:0.708661;stroke-linecap:round;stroke-linejoin:round;stroke:rgb(0%,0%,0%);stroke-opacity:1;stroke-miterlimit:10;" d="M 270.125 125.183594 C 270.125 127.789062 266.214844 127.789062 266.214844 125.183594 C 266.214844 122.574219 270.125 122.574219 270.125 125.183594 "/>
<path style="fill-rule:nonzero;fill:rgb(0%,0%,0%);fill-opacity:1;stroke-width:0.708661;stroke-linecap:round;stroke-linejoin:round;stroke:rgb(0%,0%,0%);stroke-opacity:1;stroke-miterlimit:10;" d="M 233.515625 137.453125 C 233.515625 140.0625 229.605469 140.0625 229.605469 137.453125 C 229.605469 134.847656 233.515625 134.847656 233.515625 137.453125 "/>
<path style="fill-rule:nonzero;fill:rgb(0%,0%,0%);fill-opacity:1;stroke-width:0.708661;stroke-linecap:round;stroke-linejoin:round;stroke:rgb(0%,0%,0%);stroke-opacity:1;stroke-miterlimit:10;" d="M 233.515625 125.183594 C 233.515625 127.789062 229.605469 127.789062 229.605469 125.183594 C 229.605469 122.574219 233.515625 122.574219 233.515625 125.183594 "/>
<path style="fill-rule:nonzero;fill:rgb(0%,0%,0%);fill-opacity:1;stroke-width:0.708661;stroke-linecap:round;stroke-linejoin:round;stroke:rgb(0%,0%,0%);stroke-opacity:1;stroke-miterlimit:10;" d="M 245.71875 137.453125 C 245.71875 140.0625 241.808594 140.0625 241.808594 137.453125 C 241.808594 134.847656 245.71875 134.847656 245.71875 137.453125 "/>
<path style="fill-rule:nonzero;fill:rgb(0%,0%,0%);fill-opacity:1;stroke-width:0.708661;stroke-linecap:round;stroke-linejoin:round;stroke:rgb(0%,0%,0%);stroke-opacity:1;stroke-miterlimit:10;" d="M 227.414062 162 C 227.414062 164.605469 223.503906 164.605469 223.503906 162 C 223.503906 159.394531 227.414062 159.394531 227.414062 162 "/>
<path style="fill-rule:nonzero;fill:rgb(0%,0%,0%);fill-opacity:1;stroke-width:0.708661;stroke-linecap:round;stroke-linejoin:round;stroke:rgb(0%,0%,0%);stroke-opacity:1;stroke-miterlimit:10;" d="M 209.105469 162 C 209.105469 164.605469 205.199219 164.605469 205.199219 162 C 205.199219 159.394531 209.105469 159.394531 209.105469 162 "/>
<path style="fill-rule:nonzero;fill:rgb(0%,0%,0%);fill-opacity:1;stroke-width:0.708661;stroke-linecap:round;stroke-linejoin:round;stroke:rgb(0%,0%,0%);stroke-opacity:1;stroke-miterlimit:10;" d="M 203.003906 162 C 203.003906 164.605469 199.097656 164.605469 199.097656 162 C 199.097656 159.394531 203.003906 159.394531 203.003906 162 "/>
<path style="fill-rule:nonzero;fill:rgb(0%,0%,0%);fill-opacity:1;stroke-width:0.708661;stroke-linecap:round;stroke-linejoin:round;stroke:rgb(0%,0%,0%);stroke-opacity:1;stroke-miterlimit:10;" d="M 227.414062 174.273438 C 227.414062 176.878906 223.503906 176.878906 223.503906 174.273438 C 223.503906 171.667969 227.414062 171.667969 227.414062 174.273438 "/>
<path style="fill-rule:nonzero;fill:rgb(0%,0%,0%);fill-opacity:1;stroke-width:0.708661;stroke-linecap:round;stroke-linejoin:round;stroke:rgb(0%,0%,0%);stroke-opacity:1;stroke-miterlimit:10;" d="M 239.617188 149.726562 C 239.617188 152.332031 235.707031 152.332031 235.707031 149.726562 C 235.707031 147.121094 239.617188 147.121094 239.617188 149.726562 "/>
<path style="fill-rule:nonzero;fill:rgb(0%,0%,0%);fill-opacity:1;stroke-width:0.708661;stroke-linecap:round;stroke-linejoin:round;stroke:rgb(0%,0%,0%);stroke-opacity:1;stroke-miterlimit:10;" d="M 203.003906 174.273438 C 203.003906 176.878906 199.097656 176.878906 199.097656 174.273438 C 199.097656 171.667969 203.003906 171.667969 203.003906 174.273438 "/>
<path style="fill-rule:nonzero;fill:rgb(0%,0%,0%);fill-opacity:1;stroke-width:0.708661;stroke-linecap:round;stroke-linejoin:round;stroke:rgb(0%,0%,0%);stroke-opacity:1;stroke-miterlimit:10;" d="M 160.292969 198.816406 C 160.292969 201.425781 156.382812 201.425781 156.382812 198.816406 C 156.382812 196.210938 160.292969 196.210938 160.292969 198.816406 "/>
<path style="fill-rule:nonzero;fill:rgb(0%,0%,0%);fill-opacity:1;stroke-width:0.708661;stroke-linecap:round;stroke-linejoin:round;stroke:rgb(0%,0%,0%);stroke-opacity:1;stroke-miterlimit:10;" d="M 215.210938 162 C 215.210938 164.605469 211.300781 164.605469 211.300781 162 C 211.300781 159.394531 215.210938 159.394531 215.210938 162 "/>
<path style="fill-rule:nonzero;fill:rgb(0%,0%,0%);fill-opacity:1;stroke-width:0.708661;stroke-linecap:round;stroke-linejoin:round;stroke:rgb(0%,0%,0%);stroke-opacity:1;stroke-miterlimit:10;" d="M 215.210938 174.273438 C 215.210938 176.878906 211.300781 176.878906 211.300781 174.273438 C 211.300781 171.667969 215.210938 171.667969 215.210938 174.273438 "/>
<path style="fill-rule:nonzero;fill:rgb(0%,0%,0%);fill-opacity:1;stroke-width:0.708661;stroke-linecap:round;stroke-linejoin:round;stroke:rgb(0%,0%,0%);stroke-opacity:1;stroke-miterlimit:10;" d="M 215.210938 162 C 215.210938 164.605469 211.300781 164.605469 211.300781 162 C 211.300781 159.394531 215.210938 159.394531 215.210938 162 "/>
<path style="fill-rule:nonzero;fill:rgb(0%,0%,0%);fill-opacity:1;stroke-width:0.708661;stroke-linecap:round;stroke-linejoin:round;stroke:rgb(0%,0%,0%);stroke-opacity:1;stroke-miterlimit:10;" d="M 221.3125 162 C 221.3125 164.605469 217.402344 164.605469 217.402344 162 C 217.402344 159.394531 221.3125 159.394531 221.3125 162 "/>
<path style="fill-rule:nonzero;fill:rgb(0%,0%,0%);fill-opacity:1;stroke-width:0.708661;stroke-linecap:round;stroke-linejoin:round;stroke:rgb(0%,0%,0%);stroke-opacity:1;stroke-miterlimit:10;" d="M 141.988281 186.546875 C 141.988281 189.152344 138.078125 189.152344 138.078125 186.546875 C 138.078125 183.9375 141.988281 183.9375 141.988281 186.546875 "/>
<path style="fill-rule:nonzero;fill:rgb(0%,0%,0%);fill-opacity:1;stroke-width:0.708661;stroke-linecap:round;stroke-linejoin:round;stroke:rgb(0%,0%,0%);stroke-opacity:1;stroke-miterlimit:10;" d="M 209.105469 162 C 209.105469 164.605469 205.199219 164.605469 205.199219 162 C 205.199219 159.394531 209.105469 159.394531 209.105469 162 "/>
<path style="fill-rule:nonzero;fill:rgb(0%,0%,0%);fill-opacity:1;stroke-width:0.708661;stroke-linecap:round;stroke-linejoin:round;stroke:rgb(0%,0%,0%);stroke-opacity:1;stroke-miterlimit:10;" d="M 325.039062 14.726562 C 325.039062 17.332031 321.128906 17.332031 321.128906 14.726562 C 321.128906 12.121094 325.039062 12.121094 325.039062 14.726562 "/>
<path style="fill-rule:nonzero;fill:rgb(0%,0%,0%);fill-opacity:1;stroke-width:0.708661;stroke-linecap:round;stroke-linejoin:round;stroke:rgb(0%,0%,0%);stroke-opacity:1;stroke-miterlimit:10;" d="M 270.125 88.363281 C 270.125 90.96875 266.214844 90.96875 266.214844 88.363281 C 266.214844 85.757812 270.125 85.757812 270.125 88.363281 "/>
<path style="fill-rule:nonzero;fill:rgb(0%,0%,0%);fill-opacity:1;stroke-width:0.708661;stroke-linecap:round;stroke-linejoin:round;stroke:rgb(0%,0%,0%);stroke-opacity:1;stroke-miterlimit:10;" d="M 318.9375 63.816406 C 318.9375 66.425781 315.027344 66.425781 315.027344 63.816406 C 315.027344 61.210938 318.9375 61.210938 318.9375 63.816406 "/>
<path style="fill-rule:nonzero;fill:rgb(0%,0%,0%);fill-opacity:1;stroke-width:0.708661;stroke-linecap:round;stroke-linejoin:round;stroke:rgb(0%,0%,0%);stroke-opacity:1;stroke-miterlimit:10;" d="M 300.632812 100.636719 C 300.632812 103.242188 296.722656 103.242188 296.722656 100.636719 C 296.722656 98.03125 300.632812 98.03125 300.632812 100.636719 "/>
<path style="fill-rule:nonzero;fill:rgb(0%,0%,0%);fill-opacity:1;stroke-width:0.708661;stroke-linecap:round;stroke-linejoin:round;stroke:rgb(0%,0%,0%);stroke-opacity:1;stroke-miterlimit:10;" d="M 312.835938 51.546875 C 312.835938 54.152344 308.925781 54.152344 308.925781 51.546875 C 308.925781 48.9375 312.835938 48.9375 312.835938 51.546875 "/>
<path style="fill-rule:nonzero;fill:rgb(0%,0%,0%);fill-opacity:1;stroke-width:0.708661;stroke-linecap:round;stroke-linejoin:round;stroke:rgb(0%,0%,0%);stroke-opacity:1;stroke-miterlimit:10;" d="M 361.648438 63.816406 C 361.648438 66.425781 357.738281 66.425781 357.738281 63.816406 C 357.738281 61.210938 361.648438 61.210938 361.648438 63.816406 "/>
<path style="fill-rule:nonzero;fill:rgb(0%,0%,0%);fill-opacity:1;stroke-width:0.708661;stroke-linecap:round;stroke-linejoin:round;stroke:rgb(0%,0%,0%);stroke-opacity:1;stroke-miterlimit:10;" d="M 233.515625 112.910156 C 233.515625 115.515625 229.605469 115.515625 229.605469 112.910156 C 229.605469 110.300781 233.515625 110.300781 233.515625 112.910156 "/>
<path style="fill-rule:nonzero;fill:rgb(0%,0%,0%);fill-opacity:1;stroke-width:0.708661;stroke-linecap:round;stroke-linejoin:round;stroke:rgb(0%,0%,0%);stroke-opacity:1;stroke-miterlimit:10;" d="M 343.34375 100.636719 C 343.34375 103.242188 339.433594 103.242188 339.433594 100.636719 C 339.433594 98.03125 343.34375 98.03125 343.34375 100.636719 "/>
<path style="fill-rule:nonzero;fill:rgb(0%,0%,0%);fill-opacity:1;stroke-width:0.708661;stroke-linecap:round;stroke-linejoin:round;stroke:rgb(0%,0%,0%);stroke-opacity:1;stroke-miterlimit:10;" d="M 312.835938 100.636719 C 312.835938 103.242188 308.925781 103.242188 308.925781 100.636719 C 308.925781 98.03125 312.835938 98.03125 312.835938 100.636719 "/>
<path style="fill-rule:nonzero;fill:rgb(0%,0%,0%);fill-opacity:1;stroke-width:0.708661;stroke-linecap:round;stroke-linejoin:round;stroke:rgb(0%,0%,0%);stroke-opacity:1;stroke-miterlimit:10;" d="M 331.140625 14.726562 C 331.140625 17.332031 327.230469 17.332031 327.230469 14.726562 C 327.230469 12.121094 331.140625 12.121094 331.140625 14.726562 "/>
<path style="fill-rule:nonzero;fill:rgb(0%,0%,0%);fill-opacity:1;stroke-width:0.708661;stroke-linecap:round;stroke-linejoin:round;stroke:rgb(0%,0%,0%);stroke-opacity:1;stroke-miterlimit:10;" d="M 270.125 76.089844 C 270.125 78.699219 266.214844 78.699219 266.214844 76.089844 C 266.214844 73.484375 270.125 73.484375 270.125 76.089844 "/>
<path style="fill-rule:nonzero;fill:rgb(0%,0%,0%);fill-opacity:1;stroke-width:0.708661;stroke-linecap:round;stroke-linejoin:round;stroke:rgb(0%,0%,0%);stroke-opacity:1;stroke-miterlimit:10;" d="M 282.328125 88.363281 C 282.328125 90.96875 278.417969 90.96875 278.417969 88.363281 C 278.417969 85.757812 282.328125 85.757812 282.328125 88.363281 "/>
<path style="fill-rule:nonzero;fill:rgb(0%,0%,0%);fill-opacity:1;stroke-width:0.708661;stroke-linecap:round;stroke-linejoin:round;stroke:rgb(0%,0%,0%);stroke-opacity:1;stroke-miterlimit:10;" d="M 294.53125 63.816406 C 294.53125 66.425781 290.621094 66.425781 290.621094 63.816406 C 290.621094 61.210938 294.53125 61.210938 294.53125 63.816406 "/>
<path style="fill-rule:nonzero;fill:rgb(0%,0%,0%);fill-opacity:1;stroke-width:0.708661;stroke-linecap:round;stroke-linejoin:round;stroke:rgb(0%,0%,0%);stroke-opacity:1;stroke-miterlimit:10;" d="M 264.023438 76.089844 C 264.023438 78.699219 260.113281 78.699219 260.113281 76.089844 C 260.113281 73.484375 264.023438 73.484375 264.023438 76.089844 "/>
<path style="fill-rule:nonzero;fill:rgb(0%,0%,0%);fill-opacity:1;stroke-width:0.708661;stroke-linecap:round;stroke-linejoin:round;stroke:rgb(0%,0%,0%);stroke-opacity:1;stroke-miterlimit:10;" d="M 270.125 27 C 270.125 29.605469 266.214844 29.605469 266.214844 27 C 266.214844 24.394531 270.125 24.394531 270.125 27 "/>
<path style="fill-rule:nonzero;fill:rgb(0%,0%,0%);fill-opacity:1;stroke-width:0.708661;stroke-linecap:round;stroke-linejoin:round;stroke:rgb(0%,0%,0%);stroke-opacity:1;stroke-miterlimit:10;" d="M 282.328125 39.273438 C 282.328125 41.878906 278.417969 41.878906 278.417969 39.273438 C 278.417969 36.667969 282.328125 36.667969 282.328125 39.273438 "/>
<path style="fill-rule:nonzero;fill:rgb(0%,0%,0%);fill-opacity:1;stroke-width:0.708661;stroke-linecap:round;stroke-linejoin:round;stroke:rgb(0%,0%,0%);stroke-opacity:1;stroke-miterlimit:10;" d="M 294.53125 100.636719 C 294.53125 103.242188 290.621094 103.242188 290.621094 100.636719 C 290.621094 98.03125 294.53125 98.03125 294.53125 100.636719 "/>
<path style="fill-rule:nonzero;fill:rgb(0%,0%,0%);fill-opacity:1;stroke-width:0.708661;stroke-linecap:round;stroke-linejoin:round;stroke:rgb(0%,0%,0%);stroke-opacity:1;stroke-miterlimit:10;" d="M 367.75 51.546875 C 367.75 54.152344 363.84375 54.152344 363.84375 51.546875 C 363.84375 48.9375 367.75 48.9375 367.75 51.546875 "/>
<path style="fill-rule:nonzero;fill:rgb(0%,0%,0%);fill-opacity:1;stroke-width:0.708661;stroke-linecap:round;stroke-linejoin:round;stroke:rgb(0%,0%,0%);stroke-opacity:1;stroke-miterlimit:10;" d="M 379.953125 39.273438 C 379.953125 41.878906 376.046875 41.878906 376.046875 39.273438 C 376.046875 36.667969 379.953125 36.667969 379.953125 39.273438 "/>
<path style="fill-rule:nonzero;fill:rgb(0%,0%,0%);fill-opacity:1;stroke-width:0.708661;stroke-linecap:round;stroke-linejoin:round;stroke:rgb(0%,0%,0%);stroke-opacity:1;stroke-miterlimit:10;" d="M 264.023438 137.453125 C 264.023438 140.0625 260.113281 140.0625 260.113281 137.453125 C 260.113281 134.847656 264.023438 134.847656 264.023438 137.453125 "/>
<path style="fill-rule:nonzero;fill:rgb(0%,0%,0%);fill-opacity:1;stroke-width:0.708661;stroke-linecap:round;stroke-linejoin:round;stroke:rgb(0%,0%,0%);stroke-opacity:1;stroke-miterlimit:10;" d="M 306.734375 39.273438 C 306.734375 41.878906 302.824219 41.878906 302.824219 39.273438 C 302.824219 36.667969 306.734375 36.667969 306.734375 39.273438 "/>
<path style="fill-rule:nonzero;fill:rgb(0%,0%,0%);fill-opacity:1;stroke-width:0.708661;stroke-linecap:round;stroke-linejoin:round;stroke:rgb(0%,0%,0%);stroke-opacity:1;stroke-miterlimit:10;" d="M 257.921875 76.089844 C 257.921875 78.699219 254.011719 78.699219 254.011719 76.089844 C 254.011719 73.484375 257.921875 73.484375 257.921875 76.089844 "/>
<path style="fill-rule:nonzero;fill:rgb(0%,0%,0%);fill-opacity:1;stroke-width:0.708661;stroke-linecap:round;stroke-linejoin:round;stroke:rgb(0%,0%,0%);stroke-opacity:1;stroke-miterlimit:10;" d="M 367.75 76.089844 C 367.75 78.699219 363.84375 78.699219 363.84375 76.089844 C 363.84375 73.484375 367.75 73.484375 367.75 76.089844 "/>
<path style="fill-rule:nonzero;fill:rgb(0%,0%,0%);fill-opacity:1;stroke-width:0.708661;stroke-linecap:round;stroke-linejoin:round;stroke:rgb(0%,0%,0%);stroke-opacity:1;stroke-miterlimit:10;" d="M 257.921875 100.636719 C 257.921875 103.242188 254.011719 103.242188 254.011719 100.636719 C 254.011719 98.03125 257.921875 98.03125 257.921875 100.636719 "/>
<path style="fill-rule:nonzero;fill:rgb(0%,0%,0%);fill-opacity:1;stroke-width:0.708661;stroke-linecap:round;stroke-linejoin:round;stroke:rgb(0%,0%,0%);stroke-opacity:1;stroke-miterlimit:10;" d="M 306.734375 63.816406 C 306.734375 66.425781 302.824219 66.425781 302.824219 63.816406 C 302.824219 61.210938 306.734375 61.210938 306.734375 63.816406 "/>
<path style="fill-rule:nonzero;fill:rgb(0%,0%,0%);fill-opacity:1;stroke-width:0.708661;stroke-linecap:round;stroke-linejoin:round;stroke:rgb(0%,0%,0%);stroke-opacity:1;stroke-miterlimit:10;" d="M 325.039062 100.636719 C 325.039062 103.242188 321.128906 103.242188 321.128906 100.636719 C 321.128906 98.03125 325.039062 98.03125 325.039062 100.636719 "/>
<path style="fill-rule:nonzero;fill:rgb(0%,0%,0%);fill-opacity:1;stroke-width:0.708661;stroke-linecap:round;stroke-linejoin:round;stroke:rgb(0%,0%,0%);stroke-opacity:1;stroke-miterlimit:10;" d="M 251.820312 100.636719 C 251.820312 103.242188 247.910156 103.242188 247.910156 100.636719 C 247.910156 98.03125 251.820312 98.03125 251.820312 100.636719 "/>
<path style="fill-rule:nonzero;fill:rgb(0%,0%,0%);fill-opacity:1;stroke-width:0.708661;stroke-linecap:round;stroke-linejoin:round;stroke:rgb(0%,0%,0%);stroke-opacity:1;stroke-miterlimit:10;" d="M 257.921875 100.636719 C 257.921875 103.242188 254.011719 103.242188 254.011719 100.636719 C 254.011719 98.03125 257.921875 98.03125 257.921875 100.636719 "/>
<path style="fill-rule:nonzero;fill:rgb(0%,0%,0%);fill-opacity:1;stroke-width:0.708661;stroke-linecap:round;stroke-linejoin:round;stroke:rgb(0%,0%,0%);stroke-opacity:1;stroke-miterlimit:10;" d="M 300.632812 63.816406 C 300.632812 66.425781 296.722656 66.425781 296.722656 63.816406 C 296.722656 61.210938 300.632812 61.210938 300.632812 63.816406 "/>
<path style="fill-rule:nonzero;fill:rgb(0%,0%,0%);fill-opacity:1;stroke-width:0.708661;stroke-linecap:round;stroke-linejoin:round;stroke:rgb(0%,0%,0%);stroke-opacity:1;stroke-miterlimit:10;" d="M 312.835938 125.183594 C 312.835938 127.789062 308.925781 127.789062 308.925781 125.183594 C 308.925781 122.574219 312.835938 122.574219 312.835938 125.183594 "/>
<path style="fill-rule:nonzero;fill:rgb(0%,0%,0%);fill-opacity:1;stroke-width:0.708661;stroke-linecap:round;stroke-linejoin:round;stroke:rgb(0%,0%,0%);stroke-opacity:1;stroke-miterlimit:10;" d="M 331.140625 88.363281 C 331.140625 90.96875 327.230469 90.96875 327.230469 88.363281 C 327.230469 85.757812 331.140625 85.757812 331.140625 88.363281 "/>
<path style="fill-rule:nonzero;fill:rgb(0%,0%,0%);fill-opacity:1;stroke-width:0.708661;stroke-linecap:round;stroke-linejoin:round;stroke:rgb(0%,0%,0%);stroke-opacity:1;stroke-miterlimit:10;" d="M 349.445312 76.089844 C 349.445312 78.699219 345.535156 78.699219 345.535156 76.089844 C 345.535156 73.484375 349.445312 73.484375 349.445312 76.089844 "/>
<path style="fill-rule:nonzero;fill:rgb(0%,0%,0%);fill-opacity:1;stroke-width:0.708661;stroke-linecap:round;stroke-linejoin:round;stroke:rgb(0%,0%,0%);stroke-opacity:1;stroke-miterlimit:10;" d="M 300.632812 51.546875 C 300.632812 54.152344 296.722656 54.152344 296.722656 51.546875 C 296.722656 48.9375 300.632812 48.9375 300.632812 51.546875 "/>
<path style="fill-rule:nonzero;fill:rgb(0%,0%,0%);fill-opacity:1;stroke-width:0.708661;stroke-linecap:round;stroke-linejoin:round;stroke:rgb(0%,0%,0%);stroke-opacity:1;stroke-miterlimit:10;" d="M 270.125 137.453125 C 270.125 140.0625 266.214844 140.0625 266.214844 137.453125 C 266.214844 134.847656 270.125 134.847656 270.125 137.453125 "/>
<path style="fill-rule:nonzero;fill:rgb(0%,0%,0%);fill-opacity:1;stroke-width:0.708661;stroke-linecap:round;stroke-linejoin:round;stroke:rgb(0%,0%,0%);stroke-opacity:1;stroke-miterlimit:10;" d="M 300.632812 149.726562 C 300.632812 152.332031 296.722656 152.332031 296.722656 149.726562 C 296.722656 147.121094 300.632812 147.121094 300.632812 149.726562 "/>
<path style="fill-rule:nonzero;fill:rgb(0%,0%,0%);fill-opacity:1;stroke-width:0.708661;stroke-linecap:round;stroke-linejoin:round;stroke:rgb(0%,0%,0%);stroke-opacity:1;stroke-miterlimit:10;" d="M 331.140625 39.273438 C 331.140625 41.878906 327.230469 41.878906 327.230469 39.273438 C 327.230469 36.667969 331.140625 36.667969 331.140625 39.273438 "/>
<path style="fill-rule:nonzero;fill:rgb(0%,0%,0%);fill-opacity:1;stroke-width:0.708661;stroke-linecap:round;stroke-linejoin:round;stroke:rgb(0%,0%,0%);stroke-opacity:1;stroke-miterlimit:10;" d="M 300.632812 27 C 300.632812 29.605469 296.722656 29.605469 296.722656 27 C 296.722656 24.394531 300.632812 24.394531 300.632812 27 "/>
<path style="fill-rule:nonzero;fill:rgb(0%,0%,0%);fill-opacity:1;stroke-width:0.708661;stroke-linecap:round;stroke-linejoin:round;stroke:rgb(0%,0%,0%);stroke-opacity:1;stroke-miterlimit:10;" d="M 294.53125 100.636719 C 294.53125 103.242188 290.621094 103.242188 290.621094 100.636719 C 290.621094 98.03125 294.53125 98.03125 294.53125 100.636719 "/>
<path style="fill-rule:nonzero;fill:rgb(0%,0%,0%);fill-opacity:1;stroke-width:0.708661;stroke-linecap:round;stroke-linejoin:round;stroke:rgb(0%,0%,0%);stroke-opacity:1;stroke-miterlimit:10;" d="M 251.820312 100.636719 C 251.820312 103.242188 247.910156 103.242188 247.910156 100.636719 C 247.910156 98.03125 251.820312 98.03125 251.820312 100.636719 "/>
<path style="fill-rule:nonzero;fill:rgb(0%,0%,0%);fill-opacity:1;stroke-width:0.708661;stroke-linecap:round;stroke-linejoin:round;stroke:rgb(0%,0%,0%);stroke-opacity:1;stroke-miterlimit:10;" d="M 288.429688 63.816406 C 288.429688 66.425781 284.519531 66.425781 284.519531 63.816406 C 284.519531 61.210938 288.429688 61.210938 288.429688 63.816406 "/>
<path style="fill-rule:nonzero;fill:rgb(0%,0%,0%);fill-opacity:1;stroke-width:0.708661;stroke-linecap:round;stroke-linejoin:round;stroke:rgb(0%,0%,0%);stroke-opacity:1;stroke-miterlimit:10;" d="M 300.632812 27 C 300.632812 29.605469 296.722656 29.605469 296.722656 27 C 296.722656 24.394531 300.632812 24.394531 300.632812 27 "/>
<path style="fill-rule:nonzero;fill:rgb(0%,0%,0%);fill-opacity:1;stroke-width:0.708661;stroke-linecap:round;stroke-linejoin:round;stroke:rgb(0%,0%,0%);stroke-opacity:1;stroke-miterlimit:10;" d="M 270.125 39.273438 C 270.125 41.878906 266.214844 41.878906 266.214844 39.273438 C 266.214844 36.667969 270.125 36.667969 270.125 39.273438 "/>
<path style="fill-rule:nonzero;fill:rgb(0%,0%,0%);fill-opacity:1;stroke-width:0.708661;stroke-linecap:round;stroke-linejoin:round;stroke:rgb(0%,0%,0%);stroke-opacity:1;stroke-miterlimit:10;" d="M 270.125 88.363281 C 270.125 90.96875 266.214844 90.96875 266.214844 88.363281 C 266.214844 85.757812 270.125 85.757812 270.125 88.363281 "/>
<path style="fill-rule:nonzero;fill:rgb(0%,0%,0%);fill-opacity:1;stroke-width:0.708661;stroke-linecap:round;stroke-linejoin:round;stroke:rgb(0%,0%,0%);stroke-opacity:1;stroke-miterlimit:10;" d="M 318.9375 39.273438 C 318.9375 41.878906 315.027344 41.878906 315.027344 39.273438 C 315.027344 36.667969 318.9375 36.667969 318.9375 39.273438 "/>
<path style="fill-rule:nonzero;fill:rgb(0%,0%,0%);fill-opacity:1;stroke-width:0.708661;stroke-linecap:round;stroke-linejoin:round;stroke:rgb(0%,0%,0%);stroke-opacity:1;stroke-miterlimit:10;" d="M 306.734375 14.726562 C 306.734375 17.332031 302.824219 17.332031 302.824219 14.726562 C 302.824219 12.121094 306.734375 12.121094 306.734375 14.726562 "/>
<path style="fill-rule:nonzero;fill:rgb(0%,0%,0%);fill-opacity:1;stroke-width:0.708661;stroke-linecap:round;stroke-linejoin:round;stroke:rgb(0%,0%,0%);stroke-opacity:1;stroke-miterlimit:10;" d="M 276.226562 39.273438 C 276.226562 41.878906 272.316406 41.878906 272.316406 39.273438 C 272.316406 36.667969 276.226562 36.667969 276.226562 39.273438 "/>
<path style="fill-rule:nonzero;fill:rgb(0%,0%,0%);fill-opacity:1;stroke-width:0.708661;stroke-linecap:round;stroke-linejoin:round;stroke:rgb(0%,0%,0%);stroke-opacity:1;stroke-miterlimit:10;" d="M 264.023438 88.363281 C 264.023438 90.96875 260.113281 90.96875 260.113281 88.363281 C 260.113281 85.757812 264.023438 85.757812 264.023438 88.363281 "/>
<path style="fill-rule:nonzero;fill:rgb(0%,0%,0%);fill-opacity:1;stroke-width:0.708661;stroke-linecap:round;stroke-linejoin:round;stroke:rgb(0%,0%,0%);stroke-opacity:1;stroke-miterlimit:10;" d="M 276.226562 76.089844 C 276.226562 78.699219 272.316406 78.699219 272.316406 76.089844 C 272.316406 73.484375 276.226562 73.484375 276.226562 76.089844 "/>
<path style="fill-rule:nonzero;fill:rgb(0%,0%,0%);fill-opacity:1;stroke-width:0.708661;stroke-linecap:round;stroke-linejoin:round;stroke:rgb(0%,0%,0%);stroke-opacity:1;stroke-miterlimit:10;" d="M 288.429688 39.273438 C 288.429688 41.878906 284.519531 41.878906 284.519531 39.273438 C 284.519531 36.667969 288.429688 36.667969 288.429688 39.273438 "/>
<path style="fill-rule:nonzero;fill:rgb(0%,0%,0%);fill-opacity:1;stroke-width:0.708661;stroke-linecap:round;stroke-linejoin:round;stroke:rgb(0%,0%,0%);stroke-opacity:1;stroke-miterlimit:10;" d="M 270.125 100.636719 C 270.125 103.242188 266.214844 103.242188 266.214844 100.636719 C 266.214844 98.03125 270.125 98.03125 270.125 100.636719 "/>
</g>
</svg>
